<?xml version="1.0" encoding="UTF-8"?>
<svg id="Layer_1" data-name="Layer 1" xmlns="http://www.w3.org/2000/svg" xmlns:xlink="http://www.w3.org/1999/xlink" viewBox="0 0 1080 1080">
  <defs>
    <style>
      .cls-1 {
        fill: #fff;
      }

      .cls-2 {
        font-family: Poppins-Regular, Poppins;
        font-size: 72px;
      }

      .cls-3 {
        fill: #228765;
      }

      .cls-4 {
        fill: #36cc7c;
      }

      .cls-5 {
        fill: url(#linear-gradient);
      }

      .cls-6 {
        fill: #333132;
      }
    </style>
    <linearGradient id="linear-gradient" x1="576.82" y1="647.26" x2="715.55" y2="647.26" gradientUnits="userSpaceOnUse">
      <stop offset="0" stop-color="#36cc7c"/>
      <stop offset="1" stop-color="#228765"/>
    </linearGradient>
  </defs>
  <text class="cls-2" transform="translate(422.75 416.65)"><tspan x="0" y="0">ICONS</tspan></text>
  <g>
    <rect class="cls-3" x="152.08" y="577.89" width="138.73" height="138.73" rx="32.01" ry="32.01"/>
    <g>
      <g>
        <path class="cls-1" d="m210.44,663.55c.3-2.79-1.96-4.46-5.2-4.46s-5.8,1.71-5.78,4.75c.02,4.18,5.97,3.77,5.97,5.82,0,.67-.55,1.02-1.3,1.02-.98,0-1.42-.55-1.34-1.46h-4.22c-.34,3.09,2.06,4.6,5.48,4.6s5.7-1.93,5.7-4.5c0-4.18-5.95-4.09-5.95-6.05,0-.65.51-1.04,1.23-1.04.81,0,1.26.51,1.12,1.32h4.3Zm3.19-4.95l-2.67,15.07h4.01l2.67-15.07h-4.01Zm7.77,6.05c-.96,0-1.8-.27-2.42-.77l-1.74,9.78h4.01l1.63-9.25c-.46.15-.96.23-1.48.23Zm19.07-2.51c-1.69,0-3.19.94-4.17,2.1-.51-1.34-1.73-2.1-3.42-2.1-1.55,0-2.81.67-3.6,1.59l.26-1.49h-3.99l-2.04,11.42h4.01l1.1-6.23c.2-1.14,1.06-1.84,2.24-1.84s1.75.69,1.53,1.94l-1.08,6.13h3.99l1.14-6.37c.26-1.1,1.1-1.69,2.18-1.69,1.14,0,1.75.69,1.55,1.94l-1.08,6.13h3.97l1.18-6.66c.53-2.99-.88-4.86-3.77-4.86Zm-15.85-1.06c-.15.84-.7,1.58-1.51,2.01-.49.27-1.07.43-1.71.43-1.06,0-1.81-.42-2.17-1.06-.22-.39-.29-.86-.2-1.38.24-1.39,1.51-2.48,3.22-2.48s2.61,1.1,2.36,2.48Z"/>
        <g>
          <path class="cls-1" d="m199.36,679.25h-.83l.07-.39h.83l.24-1.39h.46l-.24,1.39h1.61l-.07.39h-1.61l-.64,3.62c-.15.83.09,1.06.83,1.06h.6l-.07.4h-.68c-.94,0-1.32-.38-1.14-1.46l.64-3.62Z"/>
          <path class="cls-1" d="m204.66,684.41c-1.35,0-2.27-.84-2.27-2.21,0-1.87,1.36-3.41,3.24-3.41,1.34,0,2.27.83,2.27,2.21,0,1.87-1.37,3.41-3.24,3.41Zm.06-.39c1.62,0,2.72-1.4,2.72-3,0-1.26-.87-1.84-1.87-1.84-1.63,0-2.71,1.41-2.71,3,0,1.26.86,1.84,1.86,1.84Z"/>
          <path class="cls-1" d="m212.58,678.79c1.19,0,1.89.66,2.04,1.49l.25-1.42h.45l-1,5.64c-.28,1.55-1.55,2.51-2.93,2.51s-2.19-.73-2.26-1.82h.45c.1.85.74,1.43,1.87,1.43s2.18-.8,2.41-2.11l.28-1.6c-.44.83-1.38,1.51-2.58,1.51-1.53,0-2.45-1.1-2.14-2.82.3-1.73,1.6-2.8,3.14-2.8Zm-.01.39c-1.32,0-2.41.9-2.67,2.41-.26,1.51.49,2.42,1.81,2.42s2.42-.94,2.68-2.42c.26-1.46-.54-2.41-1.82-2.41Z"/>
          <path class="cls-1" d="m218.89,684.41c-1.53,0-2.48-1.07-2.17-2.82.31-1.74,1.61-2.8,3.15-2.8,1.64,0,2.35,1.17,2.12,2.43-.04.24-.06.36-.12.54h-4.72c-.23,1.53.67,2.26,1.8,2.26,1.07,0,1.95-.57,2.3-1.48h.47c-.41,1.08-1.45,1.87-2.84,1.87Zm-1.67-3h4.3c.33-1.53-.6-2.24-1.72-2.24s-2.27.73-2.58,2.24Z"/>
          <path class="cls-1" d="m224.44,679.25h-.83l.07-.39h.83l.24-1.39h.46l-.24,1.39h1.61l-.07.39h-1.61l-.64,3.62c-.15.83.09,1.06.83,1.06h.6l-.07.4h-.68c-.94,0-1.32-.38-1.14-1.46l.64-3.62Z"/>
          <path class="cls-1" d="m228.64,676.88h.45l-.55,3.15c.46-.86,1.33-1.28,2.26-1.28,1.2,0,2.05.74,1.76,2.38l-.56,3.2h-.44l.56-3.17c.23-1.33-.37-2.01-1.48-2.01s-2.06.71-2.34,2.24h0s-.52,2.95-.52,2.95h-.45l1.32-7.45Z"/>
          <path class="cls-1" d="m236.46,684.41c-1.53,0-2.48-1.07-2.17-2.82.31-1.74,1.61-2.8,3.15-2.8,1.64,0,2.35,1.17,2.12,2.43-.04.24-.06.36-.12.54h-4.72c-.23,1.53.67,2.26,1.8,2.26,1.07,0,1.95-.57,2.3-1.48h.47c-.41,1.08-1.45,1.87-2.84,1.87Zm-1.67-3h4.3c.33-1.53-.6-2.24-1.72-2.24s-2.27.73-2.58,2.24Z"/>
          <path class="cls-1" d="m241.34,684.33h-.45l.98-5.47h.45l-.21,1.18c.42-.82,1.18-1.29,2.25-1.29l-.09.47h-.14c-.95,0-1.95.46-2.22,1.95l-.56,3.15Z"/>
        </g>
      </g>
      <path class="cls-1" d="m253.69,617.45c-.34-5.29-4.63-9.59-9.92-9.92-6.42-.41-11.71,4.88-11.3,11.3.33,5.29,4.63,9.59,9.92,9.92,6.42.4,11.71-4.89,11.3-11.3Zm11.06,5.83l-14.8,14.8c-1.88,1.88-4.37,2.82-6.86,2.82s-4.98-.94-6.87-2.82l-5.79-5.79c-2.48-2.48-5.74-3.72-8.99-3.72s-6.5,1.24-8.99,3.72h0l-5.79,5.79c-1.88,1.88-4.37,2.82-6.87,2.82s-4.98-.94-6.86-2.82l-14.8-14.8-8.99,8.99,14.8,14.8c4.37,4.36,10.11,6.55,15.85,6.55s11.49-2.18,15.86-6.55l5.79-5.79,5.79,5.79c4.36,4.36,10.11,6.55,15.85,6.55s11.49-2.18,15.85-6.55l14.8-14.8-8.99-8.99Zm-54.34-5.83c-.34-5.29-4.63-9.59-9.92-9.92-6.42-.41-11.71,4.88-11.3,11.3.33,5.29,4.63,9.59,9.92,9.92,6.42.4,11.71-4.89,11.3-11.3Z"/>
    </g>
  </g>
  <g>
    <rect class="cls-4" x="364.45" y="577.89" width="138.73" height="138.73" rx="32.01" ry="32.01"/>
    <g>
      <g>
        <path class="cls-1" d="m422.81,663.55c.3-2.79-1.96-4.46-5.2-4.46s-5.8,1.71-5.78,4.75c.02,4.18,5.97,3.77,5.97,5.82,0,.67-.55,1.02-1.3,1.02-.98,0-1.42-.55-1.34-1.46h-4.22c-.34,3.09,2.06,4.6,5.48,4.6s5.7-1.93,5.7-4.5c0-4.18-5.95-4.09-5.95-6.05,0-.65.51-1.04,1.23-1.04.81,0,1.26.51,1.12,1.32h4.3Zm3.19-4.95l-2.67,15.07h4.01l2.67-15.07h-4.01Zm7.77,6.05c-.96,0-1.8-.27-2.42-.77l-1.74,9.78h4.01l1.63-9.25c-.46.15-.96.23-1.48.23Zm19.07-2.51c-1.69,0-3.19.94-4.17,2.1-.51-1.34-1.73-2.1-3.42-2.1-1.55,0-2.81.67-3.6,1.59l.26-1.49h-3.99l-2.04,11.42h4.01l1.1-6.23c.2-1.14,1.06-1.84,2.24-1.84s1.75.69,1.53,1.94l-1.08,6.13h3.99l1.14-6.37c.26-1.1,1.1-1.69,2.18-1.69,1.14,0,1.75.69,1.55,1.94l-1.08,6.13h3.97l1.18-6.66c.53-2.99-.88-4.86-3.77-4.86Zm-15.85-1.06c-.15.84-.7,1.58-1.51,2.01-.49.27-1.07.43-1.71.43-1.06,0-1.81-.42-2.17-1.06-.22-.39-.29-.86-.2-1.38.24-1.39,1.51-2.48,3.22-2.48s2.61,1.1,2.36,2.48Z"/>
        <g>
          <path class="cls-1" d="m411.73,679.25h-.83l.07-.39h.83l.24-1.39h.46l-.24,1.39h1.61l-.07.39h-1.61l-.64,3.62c-.15.83.09,1.06.83,1.06h.6l-.07.4h-.68c-.94,0-1.32-.38-1.14-1.46l.64-3.62Z"/>
          <path class="cls-1" d="m417.03,684.41c-1.35,0-2.27-.84-2.27-2.21,0-1.87,1.36-3.41,3.24-3.41,1.34,0,2.27.83,2.27,2.21,0,1.87-1.37,3.41-3.24,3.41Zm.06-.39c1.62,0,2.72-1.4,2.72-3,0-1.26-.87-1.84-1.87-1.84-1.63,0-2.71,1.41-2.71,3,0,1.26.86,1.84,1.86,1.84Z"/>
          <path class="cls-1" d="m424.95,678.79c1.19,0,1.89.66,2.04,1.49l.25-1.42h.45l-1,5.64c-.28,1.55-1.55,2.51-2.93,2.51s-2.19-.73-2.26-1.82h.45c.1.85.74,1.43,1.87,1.43s2.18-.8,2.41-2.11l.28-1.6c-.44.83-1.38,1.51-2.58,1.51-1.53,0-2.45-1.1-2.14-2.82.3-1.73,1.6-2.8,3.14-2.8Zm-.01.39c-1.32,0-2.41.9-2.67,2.41-.26,1.51.49,2.42,1.81,2.42s2.42-.94,2.68-2.42c.26-1.46-.54-2.41-1.82-2.41Z"/>
          <path class="cls-1" d="m431.26,684.41c-1.53,0-2.48-1.07-2.17-2.82.31-1.74,1.61-2.8,3.15-2.8,1.64,0,2.35,1.17,2.12,2.43-.04.24-.06.36-.12.54h-4.72c-.23,1.53.67,2.26,1.8,2.26,1.07,0,1.95-.57,2.3-1.48h.47c-.41,1.08-1.45,1.87-2.84,1.87Zm-1.67-3h4.3c.33-1.53-.6-2.24-1.72-2.24s-2.27.73-2.58,2.24Z"/>
          <path class="cls-1" d="m436.81,679.25h-.83l.07-.39h.83l.24-1.39h.46l-.24,1.39h1.61l-.07.39h-1.61l-.64,3.62c-.15.83.09,1.06.83,1.06h.6l-.07.4h-.68c-.94,0-1.32-.38-1.14-1.46l.64-3.62Z"/>
          <path class="cls-1" d="m441,676.88h.45l-.55,3.15c.46-.86,1.33-1.28,2.26-1.28,1.2,0,2.05.74,1.76,2.38l-.56,3.2h-.44l.56-3.17c.23-1.33-.37-2.01-1.48-2.01s-2.06.71-2.34,2.24h0s-.52,2.95-.52,2.95h-.45l1.32-7.45Z"/>
          <path class="cls-1" d="m448.83,684.41c-1.53,0-2.48-1.07-2.17-2.82.31-1.74,1.61-2.8,3.15-2.8,1.64,0,2.35,1.17,2.12,2.43-.04.24-.06.36-.12.54h-4.72c-.23,1.53.67,2.26,1.8,2.26,1.07,0,1.95-.57,2.3-1.48h.47c-.41,1.08-1.45,1.87-2.84,1.87Zm-1.67-3h4.3c.33-1.53-.6-2.24-1.72-2.24s-2.27.73-2.58,2.24Z"/>
          <path class="cls-1" d="m453.71,684.33h-.45l.98-5.47h.45l-.21,1.18c.42-.82,1.18-1.29,2.25-1.29l-.09.47h-.14c-.95,0-1.95.46-2.22,1.95l-.56,3.15Z"/>
        </g>
      </g>
      <path class="cls-1" d="m466.06,617.45c-.34-5.29-4.63-9.59-9.92-9.92-6.42-.41-11.71,4.88-11.3,11.3.33,5.29,4.63,9.59,9.92,9.92,6.42.4,11.71-4.89,11.3-11.3Zm11.06,5.83l-14.8,14.8c-1.88,1.88-4.37,2.82-6.86,2.82s-4.98-.94-6.87-2.82l-5.79-5.79c-2.48-2.48-5.74-3.72-8.99-3.72s-6.5,1.24-8.99,3.72h0l-5.79,5.79c-1.88,1.88-4.37,2.82-6.87,2.82s-4.98-.94-6.86-2.82l-14.8-14.8-8.99,8.99,14.8,14.8c4.37,4.36,10.11,6.55,15.85,6.55s11.49-2.18,15.86-6.55l5.79-5.79,5.79,5.79c4.36,4.36,10.11,6.55,15.85,6.55s11.49-2.18,15.85-6.55l14.8-14.8-8.99-8.99Zm-54.34-5.83c-.34-5.29-4.63-9.59-9.92-9.92-6.42-.41-11.71,4.88-11.3,11.3.33,5.29,4.63,9.59,9.92,9.92,6.42.4,11.71-4.89,11.3-11.3Z"/>
    </g>
  </g>
  <g>
    <rect class="cls-5" x="576.82" y="577.89" width="138.73" height="138.73" rx="32.01" ry="32.01"/>
    <g>
      <g>
        <path class="cls-1" d="m635.18,663.55c.3-2.79-1.96-4.46-5.2-4.46s-5.8,1.71-5.78,4.75c.02,4.18,5.97,3.77,5.97,5.82,0,.67-.55,1.02-1.3,1.02-.98,0-1.42-.55-1.34-1.46h-4.22c-.34,3.09,2.06,4.6,5.48,4.6s5.7-1.93,5.7-4.5c0-4.18-5.95-4.09-5.95-6.05,0-.65.51-1.04,1.23-1.04.81,0,1.26.51,1.12,1.32h4.3Zm3.19-4.95l-2.67,15.07h4.01l2.67-15.07h-4.01Zm7.77,6.05c-.96,0-1.8-.27-2.42-.77l-1.74,9.78h4.01l1.63-9.25c-.46.15-.96.23-1.48.23Zm19.07-2.51c-1.69,0-3.19.94-4.17,2.1-.51-1.34-1.73-2.1-3.42-2.1-1.55,0-2.81.67-3.6,1.59l.26-1.49h-3.99l-2.04,11.42h4.01l1.1-6.23c.2-1.14,1.06-1.84,2.24-1.84s1.75.69,1.53,1.94l-1.08,6.13h3.99l1.14-6.37c.26-1.1,1.1-1.69,2.18-1.69,1.14,0,1.75.69,1.55,1.94l-1.08,6.13h3.97l1.18-6.66c.53-2.99-.88-4.86-3.77-4.86Zm-15.85-1.06c-.15.84-.7,1.58-1.51,2.01-.49.27-1.07.43-1.71.43-1.06,0-1.81-.42-2.17-1.06-.22-.39-.29-.86-.2-1.38.24-1.39,1.51-2.48,3.22-2.48s2.61,1.1,2.36,2.48Z"/>
        <g>
          <path class="cls-1" d="m624.1,679.25h-.83l.07-.39h.83l.24-1.39h.46l-.24,1.39h1.61l-.07.39h-1.61l-.64,3.62c-.15.83.09,1.06.83,1.06h.6l-.07.4h-.68c-.94,0-1.32-.38-1.14-1.46l.64-3.62Z"/>
          <path class="cls-1" d="m629.4,684.41c-1.35,0-2.27-.84-2.27-2.21,0-1.87,1.36-3.41,3.24-3.41,1.34,0,2.27.83,2.27,2.21,0,1.87-1.37,3.41-3.24,3.41Zm.06-.39c1.62,0,2.72-1.4,2.72-3,0-1.26-.87-1.84-1.87-1.84-1.63,0-2.71,1.41-2.71,3,0,1.26.86,1.84,1.86,1.84Z"/>
          <path class="cls-1" d="m637.32,678.79c1.19,0,1.89.66,2.04,1.49l.25-1.42h.45l-1,5.64c-.28,1.55-1.55,2.51-2.93,2.51s-2.19-.73-2.26-1.82h.45c.1.85.74,1.43,1.87,1.43s2.18-.8,2.41-2.11l.28-1.6c-.44.83-1.38,1.51-2.58,1.51-1.53,0-2.45-1.1-2.14-2.82.3-1.73,1.6-2.8,3.14-2.8Zm-.01.39c-1.32,0-2.41.9-2.67,2.41-.26,1.51.49,2.42,1.81,2.42s2.42-.94,2.68-2.42c.26-1.46-.54-2.41-1.82-2.41Z"/>
          <path class="cls-1" d="m643.63,684.41c-1.53,0-2.48-1.07-2.17-2.82.31-1.74,1.61-2.8,3.15-2.8,1.64,0,2.35,1.17,2.12,2.43-.04.24-.06.36-.12.54h-4.72c-.23,1.53.67,2.26,1.8,2.26,1.07,0,1.95-.57,2.3-1.48h.47c-.41,1.08-1.45,1.87-2.84,1.87Zm-1.67-3h4.3c.33-1.53-.6-2.24-1.72-2.24s-2.27.73-2.58,2.24Z"/>
          <path class="cls-1" d="m649.18,679.25h-.83l.07-.39h.83l.24-1.39h.46l-.24,1.39h1.61l-.07.39h-1.61l-.64,3.62c-.15.83.09,1.06.83,1.06h.6l-.07.4h-.68c-.94,0-1.32-.38-1.14-1.46l.64-3.62Z"/>
          <path class="cls-1" d="m653.37,676.88h.45l-.55,3.15c.46-.86,1.33-1.28,2.26-1.28,1.2,0,2.05.74,1.76,2.38l-.56,3.2h-.44l.56-3.17c.23-1.33-.37-2.01-1.48-2.01s-2.06.71-2.34,2.24h0s-.52,2.95-.52,2.95h-.45l1.32-7.45Z"/>
          <path class="cls-1" d="m661.2,684.41c-1.53,0-2.48-1.07-2.17-2.82.31-1.74,1.61-2.8,3.15-2.8,1.64,0,2.35,1.17,2.12,2.43-.04.24-.06.36-.12.54h-4.72c-.23,1.53.67,2.26,1.8,2.26,1.07,0,1.95-.57,2.3-1.48h.47c-.41,1.08-1.45,1.87-2.84,1.87Zm-1.67-3h4.3c.33-1.53-.6-2.24-1.72-2.24s-2.27.73-2.58,2.24Z"/>
          <path class="cls-1" d="m666.08,684.33h-.45l.98-5.47h.45l-.21,1.18c.42-.82,1.18-1.29,2.25-1.29l-.09.47h-.14c-.95,0-1.95.46-2.22,1.95l-.56,3.15Z"/>
        </g>
      </g>
      <path class="cls-1" d="m678.43,617.45c-.34-5.29-4.63-9.59-9.92-9.92-6.42-.41-11.71,4.88-11.3,11.3.33,5.29,4.63,9.59,9.92,9.92,6.42.4,11.71-4.89,11.3-11.3Zm11.06,5.83l-14.8,14.8c-1.88,1.88-4.37,2.82-6.86,2.82s-4.98-.94-6.87-2.82l-5.79-5.79c-2.48-2.48-5.74-3.72-8.99-3.72s-6.5,1.24-8.99,3.72h0l-5.79,5.79c-1.88,1.88-4.37,2.82-6.87,2.82s-4.98-.94-6.86-2.82l-14.8-14.8-8.99,8.99,14.8,14.8c4.37,4.36,10.11,6.55,15.85,6.55s11.49-2.18,15.86-6.55l5.79-5.79,5.79,5.79c4.36,4.36,10.11,6.55,15.85,6.55s11.49-2.18,15.85-6.55l14.8-14.8-8.99-8.99Zm-54.34-5.83c-.34-5.29-4.63-9.59-9.92-9.92-6.42-.41-11.71,4.88-11.3,11.3.33,5.29,4.63,9.59,9.92,9.92,6.42.4,11.71-4.89,11.3-11.3Z"/>
    </g>
  </g>
  <g>
    <rect class="cls-6" x="789.19" y="577.89" width="138.73" height="138.73" rx="32.01" ry="32.01"/>
    <g>
      <g>
        <path class="cls-1" d="m847.55,663.55c.3-2.79-1.96-4.46-5.2-4.46s-5.8,1.71-5.78,4.75c.02,4.18,5.97,3.77,5.97,5.82,0,.67-.55,1.02-1.3,1.02-.98,0-1.42-.55-1.34-1.46h-4.22c-.34,3.09,2.06,4.6,5.48,4.6s5.7-1.93,5.7-4.5c0-4.18-5.95-4.09-5.95-6.05,0-.65.51-1.04,1.23-1.04.81,0,1.26.51,1.12,1.32h4.3Zm3.19-4.95l-2.67,15.07h4.01l2.67-15.07h-4.01Zm7.77,6.05c-.96,0-1.8-.27-2.42-.77l-1.74,9.78h4.01l1.63-9.25c-.46.15-.96.23-1.48.23Zm19.07-2.51c-1.69,0-3.19.94-4.17,2.1-.51-1.34-1.73-2.1-3.42-2.1-1.55,0-2.81.67-3.6,1.59l.26-1.49h-3.99l-2.04,11.42h4.01l1.1-6.23c.2-1.14,1.06-1.84,2.24-1.84s1.75.69,1.53,1.94l-1.08,6.13h3.99l1.14-6.37c.26-1.1,1.1-1.69,2.18-1.69,1.14,0,1.75.69,1.55,1.94l-1.08,6.13h3.97l1.18-6.66c.53-2.99-.88-4.86-3.77-4.86Zm-15.85-1.06c-.15.84-.7,1.58-1.51,2.01-.49.27-1.07.43-1.71.43-1.06,0-1.81-.42-2.17-1.06-.22-.39-.29-.86-.2-1.38.24-1.39,1.51-2.48,3.22-2.48s2.61,1.1,2.36,2.48Z"/>
        <g>
          <path class="cls-1" d="m836.47,679.25h-.83l.07-.39h.83l.24-1.39h.46l-.24,1.39h1.61l-.07.39h-1.61l-.64,3.62c-.15.83.09,1.06.83,1.06h.6l-.07.4h-.68c-.94,0-1.32-.38-1.14-1.46l.64-3.62Z"/>
          <path class="cls-1" d="m841.77,684.41c-1.35,0-2.27-.84-2.27-2.21,0-1.87,1.36-3.41,3.24-3.41,1.34,0,2.27.83,2.27,2.21,0,1.87-1.37,3.41-3.24,3.41Zm.06-.39c1.62,0,2.72-1.4,2.72-3,0-1.26-.87-1.84-1.87-1.84-1.63,0-2.71,1.41-2.71,3,0,1.26.86,1.84,1.86,1.84Z"/>
          <path class="cls-1" d="m849.69,678.79c1.19,0,1.89.66,2.04,1.49l.25-1.42h.45l-1,5.64c-.28,1.55-1.55,2.51-2.93,2.51s-2.19-.73-2.26-1.82h.45c.1.85.74,1.43,1.87,1.43s2.18-.8,2.41-2.11l.28-1.6c-.44.83-1.38,1.51-2.58,1.51-1.53,0-2.45-1.1-2.14-2.82.3-1.73,1.6-2.8,3.14-2.8Zm-.01.39c-1.32,0-2.41.9-2.67,2.41-.26,1.51.49,2.42,1.81,2.42s2.42-.94,2.68-2.42c.26-1.46-.54-2.41-1.82-2.41Z"/>
          <path class="cls-1" d="m856,684.41c-1.53,0-2.48-1.07-2.17-2.82.31-1.74,1.61-2.8,3.15-2.8,1.64,0,2.35,1.17,2.12,2.43-.04.24-.06.36-.12.54h-4.72c-.23,1.53.67,2.26,1.8,2.26,1.07,0,1.95-.57,2.3-1.48h.47c-.41,1.08-1.45,1.87-2.84,1.87Zm-1.67-3h4.3c.33-1.53-.6-2.24-1.72-2.24s-2.27.73-2.58,2.24Z"/>
          <path class="cls-1" d="m861.54,679.25h-.83l.07-.39h.83l.24-1.39h.46l-.24,1.39h1.61l-.07.39h-1.61l-.64,3.62c-.15.83.09,1.06.83,1.06h.6l-.07.4h-.68c-.94,0-1.32-.38-1.14-1.46l.64-3.62Z"/>
          <path class="cls-1" d="m865.74,676.88h.45l-.55,3.15c.46-.86,1.33-1.28,2.26-1.28,1.2,0,2.05.74,1.76,2.38l-.56,3.2h-.44l.56-3.17c.23-1.33-.37-2.01-1.48-2.01s-2.06.71-2.34,2.24h0s-.52,2.95-.52,2.95h-.45l1.32-7.45Z"/>
          <path class="cls-1" d="m873.57,684.41c-1.53,0-2.48-1.07-2.17-2.82.31-1.74,1.61-2.8,3.15-2.8,1.64,0,2.35,1.17,2.12,2.43-.04.24-.06.36-.12.54h-4.72c-.23,1.53.67,2.26,1.8,2.26,1.07,0,1.95-.57,2.3-1.48h.47c-.41,1.08-1.45,1.87-2.84,1.87Zm-1.67-3h4.3c.33-1.53-.6-2.24-1.72-2.24s-2.27.73-2.58,2.24Z"/>
          <path class="cls-1" d="m878.45,684.33h-.45l.98-5.47h.45l-.21,1.18c.42-.82,1.18-1.29,2.25-1.29l-.09.47h-.14c-.95,0-1.95.46-2.22,1.95l-.56,3.15Z"/>
        </g>
      </g>
      <path class="cls-1" d="m890.8,617.45c-.34-5.29-4.63-9.59-9.92-9.92-6.42-.41-11.71,4.88-11.3,11.3.33,5.29,4.63,9.59,9.92,9.92,6.42.4,11.71-4.89,11.3-11.3Zm11.06,5.83l-14.8,14.8c-1.88,1.88-4.37,2.82-6.86,2.82s-4.98-.94-6.87-2.82l-5.79-5.79c-2.48-2.48-5.74-3.72-8.99-3.72s-6.5,1.24-8.99,3.72h0l-5.79,5.79c-1.88,1.88-4.37,2.82-6.87,2.82s-4.98-.94-6.86-2.82l-14.8-14.8-8.99,8.99,14.8,14.8c4.37,4.36,10.11,6.55,15.85,6.55s11.49-2.18,15.86-6.55l5.79-5.79,5.79,5.79c4.36,4.36,10.11,6.55,15.85,6.55s11.49-2.18,15.85-6.55l14.8-14.8-8.99-8.99Zm-54.34-5.83c-.34-5.29-4.63-9.59-9.92-9.92-6.42-.41-11.71,4.88-11.3,11.3.33,5.29,4.63,9.59,9.92,9.92,6.42.4,11.71-4.89,11.3-11.3Z"/>
    </g>
  </g>
</svg>