<?xml version="1.0" encoding="UTF-8"?>
<svg id="Layer_1" data-name="Layer 1" xmlns="http://www.w3.org/2000/svg" viewBox="0 0 1080 1080">
  <defs>
    <style>
      .cls-1 {
        fill: #333132;
      }
    </style>
  </defs>
  <path class="cls-1" d="m502.75,595.14c1.03-9.45-6.62-15.1-17.59-15.1s-19.64,5.8-19.58,16.06c.08,14.14,20.2,12.76,20.2,19.72,0,2.28-1.85,3.45-4.41,3.45-3.31,0-4.82-1.86-4.54-4.96h-14.28c-1.17,10.47,6.96,15.57,18.55,15.57s19.3-6.54,19.3-15.23c0-14.14-20.14-13.86-20.14-20.48,0-2.21,1.72-3.51,4.15-3.51,2.75,0,4.27,1.72,3.79,4.47h14.54Zm10.81-16.75l-9.03,51.01h13.58l9.03-51.01h-13.58Zm26.3,20.49c-3.25,0-6.09-.92-8.2-2.61l-5.89,33.12h13.58l5.52-31.31c-1.57.51-3.26.79-5,.79Zm64.56-8.5c-5.72,0-10.81,3.17-14.12,7.1-1.72-4.55-5.87-7.1-11.59-7.1-5.24,0-9.51,2.27-12.2,5.38l.89-5.03h-13.5l-6.9,38.67h13.58l3.73-21.08c.68-3.87,3.57-6.21,7.58-6.21s5.92,2.35,5.17,6.56l-3.67,20.74h13.52l3.87-21.58c.89-3.71,3.71-5.72,7.36-5.72,3.87,0,5.94,2.35,5.25,6.56l-3.67,20.74h13.45l3.99-22.54c1.79-10.13-2.97-16.47-12.76-16.47Zm-53.66-3.59c-.51,2.86-2.38,5.34-5.1,6.81-1.66.92-3.64,1.44-5.8,1.44-3.59,0-6.14-1.41-7.33-3.59-.73-1.32-.98-2.92-.67-4.66.82-4.69,5.13-8.41,10.89-8.41s8.82,3.71,8,8.41Zm-85.52,61.51h-2.8l.24-1.33h2.8l.82-4.7h1.57l-.82,4.7h5.45l-.24,1.33h-5.45l-2.18,12.24c-.51,2.8.31,3.58,2.8,3.58h2.05l-.24,1.36h-2.32c-3.17,0-4.47-1.3-3.85-4.94l2.18-12.24Zm17.93,17.45c-4.57,0-7.67-2.83-7.67-7.47,0-6.34,4.6-11.56,10.98-11.56,4.53,0,7.67,2.8,7.67,7.47,0,6.34-4.64,11.56-10.98,11.56Zm.2-1.33c5.49,0,9.2-4.74,9.2-10.16,0-4.26-2.93-6.24-6.34-6.24-5.52,0-9.17,4.77-9.17,10.16,0,4.26,2.9,6.24,6.31,6.24Zm26.62-17.69c4.02,0,6.41,2.25,6.92,5.05l.85-4.81h1.53l-3.38,19.09c-.95,5.25-5.25,8.49-9.92,8.49s-7.4-2.45-7.64-6.17h1.53c.34,2.86,2.49,4.84,6.34,4.84s7.36-2.69,8.15-7.16l.95-5.42c-1.5,2.8-4.67,5.11-8.73,5.11-5.18,0-8.28-3.72-7.26-9.55,1.02-5.86,5.42-9.48,10.64-9.48Zm-.03,1.33c-4.47,0-8.15,3.03-9.03,8.15-.89,5.11,1.67,8.18,6.14,8.18s8.18-3.17,9.07-8.18c.89-4.94-1.84-8.15-6.17-8.15Zm21.37,17.69c-5.18,0-8.39-3.61-7.33-9.55,1.06-5.9,5.45-9.48,10.67-9.48,5.56,0,7.94,3.95,7.19,8.22-.14.82-.2,1.23-.41,1.84h-15.99c-.78,5.18,2.28,7.64,6.1,7.64,3.61,0,6.61-1.94,7.77-5.01h1.6c-1.4,3.65-4.91,6.34-9.61,6.34Zm-5.66-10.16h14.56c1.13-5.18-2.05-7.57-5.83-7.57s-7.67,2.45-8.73,7.57Zm24.44-7.3h-2.8l.24-1.33h2.8l.82-4.7h1.57l-.82,4.7h5.45l-.24,1.33h-5.45l-2.18,12.24c-.51,2.8.31,3.58,2.8,3.58h2.05l-.24,1.36h-2.32c-3.17,0-4.47-1.3-3.85-4.94l2.18-12.24Zm14.21-8.05h1.53l-1.87,10.67c1.57-2.9,4.5-4.33,7.64-4.33,4.06,0,6.95,2.49,5.97,8.05l-1.91,10.84h-1.5l1.91-10.74c.78-4.5-1.26-6.82-5.01-6.82s-6.99,2.42-7.91,7.57v-.03l-1.77,10.02h-1.53l4.47-25.23Zm26.49,25.5c-5.18,0-8.39-3.61-7.33-9.55,1.06-5.9,5.45-9.48,10.67-9.48,5.56,0,7.94,3.95,7.19,8.22-.14.82-.2,1.23-.41,1.84h-15.99c-.78,5.18,2.28,7.64,6.1,7.64,3.61,0,6.61-1.94,7.77-5.01h1.6c-1.4,3.65-4.91,6.34-9.61,6.34Zm-5.66-10.16h14.56c1.13-5.18-2.05-7.57-5.83-7.57s-7.67,2.45-8.73,7.57Zm22.19,9.89h-1.53l3.31-18.51h1.53l-.72,3.99c1.43-2.76,3.99-4.36,7.6-4.36l-.31,1.6h-.48c-3.2,0-6.61,1.57-7.5,6.61l-1.91,10.67Z"/>
  <path class="cls-1" d="m649.17,439.1c-1.14-17.92-15.67-32.45-33.58-33.59-21.73-1.38-39.63,16.53-38.26,38.26,1.13,17.92,15.67,32.45,33.59,33.59,21.73,1.37,39.63-16.54,38.25-38.26Zm37.44,19.73l-50.12,50.12c-6.36,6.36-14.79,9.56-23.24,9.56s-16.87-3.19-23.25-9.56l-19.59-19.6c-8.4-8.4-19.42-12.6-30.42-12.6s-22.02,4.2-30.42,12.6h-.01l-19.59,19.6c-6.36,6.36-14.8,9.56-23.25,9.56s-16.87-3.19-23.24-9.56l-50.11-50.12-30.42,30.43,50.1,50.11c14.78,14.77,34.24,22.16,53.67,22.16s38.89-7.39,53.68-22.16l19.59-19.59,19.59,19.59c14.77,14.77,34.23,22.16,53.67,22.16s38.89-7.39,53.67-22.16l50.11-50.11-30.42-30.43Zm-183.94-19.73c-1.14-17.92-15.67-32.45-33.59-33.59-21.72-1.38-39.63,16.53-38.26,38.26,1.13,17.92,15.67,32.45,33.59,33.59,21.73,1.37,39.64-16.54,38.26-38.26Z"/>
</svg>