<?xml version="1.0" encoding="UTF-8"?>
<svg id="Layer_1" data-name="Layer 1" xmlns="http://www.w3.org/2000/svg" xmlns:xlink="http://www.w3.org/1999/xlink" viewBox="0 0 1080 1080">
  <defs>
    <style>
      .cls-1 {
        fill: url(#linear-gradient);
      }
    </style>
    <linearGradient id="linear-gradient" x1="362.97" y1="483.49" x2="717.03" y2="483.49" gradientUnits="userSpaceOnUse">
      <stop offset="0" stop-color="#36cc7c"/>
      <stop offset="1" stop-color="#228765"/>
    </linearGradient>
  </defs>
  <path class="cls-1" d="m649.17,439.1c-1.14-17.92-15.67-32.45-33.58-33.59-21.73-1.38-39.63,16.53-38.26,38.26,1.13,17.92,15.67,32.45,33.59,33.59,21.73,1.37,39.63-16.54,38.25-38.26Zm37.44,19.73l-50.12,50.12c-6.36,6.36-14.79,9.56-23.24,9.56s-16.87-3.19-23.25-9.56l-19.59-19.6c-8.4-8.4-19.42-12.6-30.42-12.6s-22.02,4.2-30.42,12.6h-.01l-19.59,19.6c-6.36,6.36-14.8,9.56-23.25,9.56s-16.87-3.19-23.24-9.56l-50.11-50.12-30.42,30.43,50.1,50.11c14.78,14.77,34.24,22.16,53.67,22.16s38.89-7.39,53.68-22.16l19.59-19.59,19.59,19.59c14.77,14.77,34.23,22.16,53.67,22.16s38.89-7.39,53.67-22.16l50.11-50.11-30.42-30.43Zm-183.94-19.73c-1.14-17.92-15.67-32.45-33.59-33.59-21.72-1.38-39.63,16.53-38.26,38.26,1.13,17.92,15.67,32.45,33.59,33.59,21.73,1.37,39.64-16.54,38.26-38.26Z"/>
</svg>