<?xml version="1.0" encoding="UTF-8"?>
<svg id="Layer_1" data-name="Layer 1" xmlns="http://www.w3.org/2000/svg" viewBox="0 0 1080 1080">
  <defs>
    <style>
      .cls-1 {
        fill: #333132;
      }
    </style>
  </defs>
  <path class="cls-1" d="m492.68,500.19c1.3-12-8.41-19.19-22.35-19.19s-24.95,7.36-24.87,20.41c.1,17.96,25.66,16.21,25.66,25.05,0,2.9-2.35,4.38-5.61,4.38-4.2,0-6.12-2.37-5.76-6.3h-18.14c-1.48,13.3,8.84,19.78,23.57,19.78s24.52-8.31,24.52-19.34c0-17.96-25.58-17.61-25.58-26.02,0-2.8,2.19-4.46,5.27-4.46,3.49,0,5.43,2.19,4.82,5.69h18.48Zm13.74-21.28l-11.47,64.81h17.25l11.47-64.81h-17.25Zm33.42,26.04c-4.13,0-7.74-1.16-10.42-3.32l-7.48,42.08h17.25l7.01-39.78c-1.99.65-4.15,1.01-6.36,1.01Zm82.02-10.8c-7.26,0-13.74,4.03-17.94,9.02-2.19-5.78-7.46-9.02-14.73-9.02-6.65,0-12.08,2.88-15.5,6.83l1.13-6.4h-17.15l-8.76,49.13h17.25l4.74-26.79c.87-4.92,4.54-7.9,9.63-7.9s7.52,2.98,6.57,8.33l-4.66,26.35h17.17l4.92-27.42c1.13-4.72,4.72-7.26,9.36-7.26,4.92,0,7.54,2.98,6.67,8.33l-4.66,26.35h17.09l5.07-28.64c2.27-12.87-3.77-20.92-16.21-20.92Zm-68.18-4.56c-.65,3.63-3.02,6.79-6.47,8.65-2.11,1.16-4.62,1.84-7.36,1.84-4.56,0-7.8-1.8-9.32-4.56-.93-1.68-1.24-3.71-.85-5.92,1.05-5.96,6.51-10.68,13.84-10.68s11.21,4.72,10.17,10.68Z"/>
  <g>
    <path class="cls-1" d="m445.02,567.74h-3.55l.3-1.69h3.55l1.04-5.98h1.99l-1.04,5.98h6.93l-.3,1.69h-6.93l-2.77,15.55c-.65,3.55.39,4.55,3.55,4.55h2.6l-.3,1.73h-2.95c-4.03,0-5.67-1.65-4.89-6.28l2.77-15.55Z"/>
    <path class="cls-1" d="m467.8,589.92c-5.8,0-9.75-3.6-9.75-9.49,0-8.06,5.85-14.68,13.95-14.68,5.76,0,9.75,3.55,9.75,9.49,0,8.06-5.89,14.68-13.95,14.68Zm.26-1.69c6.97,0,11.69-6.02,11.69-12.91,0-5.41-3.72-7.93-8.06-7.93-7.02,0-11.65,6.06-11.65,12.91,0,5.41,3.68,7.93,8.01,7.93Z"/>
    <path class="cls-1" d="m501.89,565.75c5.11,0,8.14,2.86,8.79,6.41l1.08-6.11h1.95l-4.29,24.26c-1.21,6.67-6.67,10.79-12.6,10.79s-9.4-3.12-9.7-7.84h1.95c.43,3.64,3.16,6.15,8.06,6.15s9.36-3.42,10.35-9.1l1.21-6.89c-1.91,3.55-5.93,6.5-11.09,6.5-6.58,0-10.53-4.72-9.23-12.13,1.3-7.45,6.89-12.04,13.51-12.04Zm-.04,1.69c-5.67,0-10.35,3.86-11.48,10.35-1.13,6.5,2.12,10.4,7.8,10.4s10.4-4.03,11.52-10.4c1.13-6.28-2.34-10.35-7.84-10.35Z"/>
    <path class="cls-1" d="m529,589.92c-6.58,0-10.66-4.59-9.31-12.13,1.34-7.49,6.93-12.04,13.56-12.04,7.06,0,10.09,5.02,9.14,10.44-.17,1.04-.26,1.56-.52,2.34h-20.31c-1,6.58,2.9,9.7,7.75,9.7,4.59,0,8.4-2.47,9.88-6.37h2.04c-1.78,4.63-6.24,8.06-12.21,8.06Zm-7.19-12.91h18.49c1.43-6.58-2.6-9.62-7.41-9.62s-9.75,3.12-11.09,9.62Z"/>
    <path class="cls-1" d="m552.86,567.74h-3.55l.3-1.69h3.55l1.04-5.98h1.99l-1.04,5.98h6.93l-.3,1.69h-6.93l-2.77,15.55c-.65,3.55.39,4.55,3.55,4.55h2.6l-.3,1.73h-2.95c-4.03,0-5.67-1.65-4.89-6.28l2.77-15.55Z"/>
    <path class="cls-1" d="m570.92,557.52h1.95l-2.38,13.56c1.99-3.68,5.72-5.5,9.7-5.5,5.15,0,8.84,3.16,7.58,10.22l-2.43,13.77h-1.91l2.43-13.64c1-5.72-1.6-8.66-6.37-8.66s-8.88,3.08-10.05,9.62v-.04l-2.25,12.73h-1.95l5.67-32.05Z"/>
    <path class="cls-1" d="m604.58,589.92c-6.58,0-10.66-4.59-9.31-12.13,1.34-7.49,6.93-12.04,13.56-12.04,7.06,0,10.09,5.02,9.14,10.44-.17,1.04-.26,1.56-.52,2.34h-20.31c-1,6.58,2.9,9.7,7.75,9.7,4.59,0,8.4-2.47,9.88-6.37h2.04c-1.78,4.63-6.24,8.06-12.21,8.06Zm-7.19-12.91h18.49c1.43-6.58-2.6-9.62-7.41-9.62s-9.75,3.12-11.09,9.62Z"/>
    <path class="cls-1" d="m625.58,589.57h-1.95l4.2-23.52h1.95l-.91,5.07c1.82-3.51,5.07-5.54,9.66-5.54l-.39,2.04h-.61c-4.07,0-8.4,1.99-9.53,8.4l-2.43,13.56Z"/>
  </g>
</svg>