<?xml version="1.0" encoding="UTF-8"?>
<svg id="Layer_1" data-name="Layer 1" xmlns="http://www.w3.org/2000/svg" xmlns:xlink="http://www.w3.org/1999/xlink" viewBox="0 0 1080 1080">
  <defs>
    <style>
      .cls-1 {
        fill: url(#linear-gradient);
        fill-rule: evenodd;
      }

      .cls-2 {
        fill: #333132;
      }
    </style>
    <linearGradient id="linear-gradient" x1="333.53" y1="491" x2="746.47" y2="491" gradientUnits="userSpaceOnUse">
      <stop offset="0" stop-color="#36cc7c"/>
      <stop offset="1" stop-color="#228765"/>
    </linearGradient>
  </defs>
  <g>
    <path class="cls-2" d="m353.42,665.05c-12.35,0-21.02-5.44-19.77-16.61h15.22c-.29,3.31,1.32,5.29,4.85,5.29,2.72,0,4.7-1.25,4.7-3.68,0-7.42-21.46-5.95-21.54-21.02-.07-10.95,8.75-17.13,20.88-17.13s19.85,6.03,18.74,16.1h-15.51c.51-2.94-1.1-4.78-4.04-4.78-2.57,0-4.41,1.4-4.41,3.75,0,7.06,21.46,6.76,21.46,21.83,0,9.26-7.72,16.24-20.58,16.24Z"/>
    <path class="cls-2" d="m388.04,610.14h14.48l-9.63,54.39h-14.48l9.63-54.39Z"/>
    <path class="cls-2" d="m416.33,632.14c-3.47,0-6.58-.94-9.03-2.68l-6.26,35.09h14.49l5.84-33.1c-1.59.46-3.29.7-5.03.7Z"/>
    <path class="cls-2" d="m426.04,617.64c-.41,2.3-1.81,4.32-3.85,5.66-1.61,1.06-3.61,1.69-5.86,1.69s-4.06-.63-5.3-1.69c-1.57-1.33-2.24-3.36-1.83-5.66.73-4.2,4.55-7.5,9.7-7.5s7.87,3.31,7.14,7.5Z"/>
    <path class="cls-2" d="m483.81,642.41c.74-4.48-1.47-6.98-5.59-6.98-3.9,0-6.91,2.13-7.87,6.1l-4.12,23.01h-14.41l3.9-22.12c.81-4.48-1.4-6.98-5.51-6.98s-7.35,2.5-8.09,6.62l-3.97,22.49h-14.48l7.35-41.24h14.41l-.96,5.37c2.87-3.31,7.42-5.73,13.01-5.73,6.1,0,10.51,2.72,12.35,7.57,3.53-4.19,8.97-7.57,15.07-7.57,10.44,0,15.51,6.76,13.6,17.57l-4.26,24.04h-14.33l3.9-22.12Z"/>
    <g>
      <path class="cls-2" d="m510.65,638.03h-4.01v-4.24h4.01v-7.8h5.14v7.8h8.08v4.24h-8.08v18.26c0,3.05,1.13,4.13,4.3,4.13h3.79v4.35h-4.64c-5.48,0-8.59-2.26-8.59-8.48v-18.26Z"/>
      <path class="cls-2" d="m543.61,665.27c-8.76,0-15.43-6.22-15.43-16.05s6.9-15.94,15.66-15.94,15.66,6.16,15.66,15.94-7.07,16.05-15.88,16.05Zm0-4.52c5.37,0,10.63-3.67,10.63-11.53s-5.14-11.48-10.46-11.48-10.34,3.67-10.34,11.48,4.8,11.53,10.18,11.53Z"/>
      <path class="cls-2" d="m579.05,633.28c5.65,0,9.72,2.83,11.53,6.16v-5.65h5.2v31.66c0,8.54-5.71,14.58-14.81,14.58-8.14,0-13.96-4.13-14.98-10.74h5.09c1.13,3.73,4.8,6.28,9.89,6.28,5.48,0,9.61-3.51,9.61-10.12v-6.5c-1.87,3.33-5.88,6.33-11.53,6.33-8.31,0-14.7-6.5-14.7-16.11s6.39-15.88,14.7-15.88Zm1.02,4.47c-5.65,0-10.46,4.13-10.46,11.42s4.8,11.59,10.46,11.59,10.51-4.24,10.51-11.53-4.86-11.48-10.51-11.48Z"/>
      <path class="cls-2" d="m617.88,665.27c-8.82,0-15.32-6.22-15.32-16.05s6.27-15.94,15.32-15.94,14.87,6.33,14.87,14.81c0,1.13-.06,2.04-.17,3.11h-24.76c.4,6.28,4.8,9.72,10.06,9.72,4.64,0,7.57-2.37,8.71-5.71h5.54c-1.58,5.65-6.56,10.06-14.25,10.06Zm-10.01-18.26h19.56c.06-6.05-4.47-9.38-9.78-9.38-5.03,0-9.21,3.34-9.78,9.38Z"/>
      <path class="cls-2" d="m640.66,638.03h-4.01v-4.24h4.01v-7.8h5.14v7.8h8.08v4.24h-8.08v18.26c0,3.05,1.13,4.13,4.3,4.13h3.79v4.35h-4.64c-5.48,0-8.59-2.26-8.59-8.48v-18.26Z"/>
      <path class="cls-2" d="m660.1,622.93h5.14v15.32c2.04-3.28,5.88-5.03,10.23-5.03,6.9,0,12.38,4.41,12.38,13.28v18.26h-5.09v-17.52c0-6.33-3.45-9.55-8.65-9.55s-8.88,3.28-8.88,9.95v17.13h-5.14v-41.83Z"/>
      <path class="cls-2" d="m709.67,665.27c-8.82,0-15.32-6.22-15.32-16.05s6.27-15.94,15.32-15.94,14.87,6.33,14.87,14.81c0,1.13-.06,2.04-.17,3.11h-24.76c.4,6.28,4.8,9.72,10.06,9.72,4.64,0,7.57-2.37,8.71-5.71h5.54c-1.58,5.65-6.56,10.06-14.25,10.06Zm-10.01-18.26h19.56c.06-6.05-4.47-9.38-9.78-9.38-5.03,0-9.21,3.34-9.78,9.38Z"/>
      <path class="cls-2" d="m736.47,664.77h-5.14v-30.98h5.14v5.03c1.75-3.45,5.09-5.6,10.01-5.6v5.31h-1.36c-4.92,0-8.65,2.2-8.65,9.38v16.85Z"/>
    </g>
  </g>
  <path class="cls-1" d="m496.21,436.5c-2.35-18.73-17.46-33.84-36.19-36.19-27.46-3.46-50.56,19.6-47.1,47.1,2.35,18.7,17.49,33.8,36.19,36.19,27.46,3.42,50.56-19.64,47.1-47.1Zm214.78,25.75l-58.45,58.45c-7.42,7.42-17.25,11.15-27.09,11.15s-19.67-3.73-27.09-11.15l-22.86-22.86c-9.8-9.8-22.63-14.7-35.48-14.7s-25.68,4.9-35.48,14.7l-22.86,22.86c-7.42,7.42-17.25,11.15-27.12,11.15s-19.67-3.73-27.09-11.15l-58.45-58.45-35.48,35.48,58.45,58.45c17.22,17.22,39.91,25.85,62.57,25.85s45.39-8.63,62.61-25.85l22.86-22.86,22.83,22.86c17.25,17.22,39.95,25.85,62.61,25.85s45.35-8.63,62.61-25.85l58.41-58.45-35.48-35.48Zm-43.91-25.75c-2.35-18.73-17.46-33.84-36.15-36.19-27.46-3.46-50.56,19.6-47.1,47.1,2.35,18.7,17.46,33.8,36.15,36.19,27.49,3.42,50.56-19.64,47.1-47.1Z"/>
</svg>