<?xml version="1.0" encoding="UTF-8"?>
<svg id="Layer_1" data-name="Layer 1" xmlns="http://www.w3.org/2000/svg" xmlns:xlink="http://www.w3.org/1999/xlink" viewBox="0 0 1080 1080">
  <defs>
    <style>
      .cls-1 {
        fill: url(#linear-gradient-75);
      }

      .cls-2 {
        fill: url(#linear-gradient-2);
      }

      .cls-3 {
        fill: url(#linear-gradient-51);
      }

      .cls-4 {
        fill: url(#linear-gradient-17);
      }

      .cls-5 {
        fill: url(#linear-gradient-80);
      }

      .cls-6 {
        fill: url(#linear-gradient-43);
      }

      .cls-7 {
        fill: url(#linear-gradient-15);
      }

      .cls-8 {
        fill: url(#linear-gradient-58);
      }

      .cls-9 {
        fill: url(#linear-gradient-69);
      }

      .cls-10 {
        fill: url(#linear-gradient-81);
      }

      .cls-11 {
        fill: url(#linear-gradient-18);
      }

      .cls-12 {
        fill: url(#linear-gradient-56);
      }

      .cls-13 {
        fill: url(#linear-gradient-40);
      }

      .cls-14 {
        fill: url(#linear-gradient-52);
      }

      .cls-15 {
        fill: url(#linear-gradient-28);
      }

      .cls-16 {
        fill: url(#linear-gradient-14);
      }

      .cls-17 {
        fill: url(#linear-gradient-36);
      }

      .cls-18 {
        fill: url(#linear-gradient-78);
      }

      .cls-19 {
        fill: url(#linear-gradient-20);
      }

      .cls-20 {
        font-family: Poppins-Regular, Poppins;
        font-size: 72px;
      }

      .cls-21 {
        fill: url(#linear-gradient-6);
      }

      .cls-22 {
        fill: url(#linear-gradient-53);
      }

      .cls-23 {
        fill: url(#linear-gradient-60);
      }

      .cls-24 {
        fill: url(#linear-gradient-35);
      }

      .cls-25 {
        fill: url(#linear-gradient-48);
      }

      .cls-26 {
        fill: url(#linear-gradient-32);
      }

      .cls-27 {
        fill: url(#linear-gradient-11);
      }

      .cls-28 {
        fill: url(#linear-gradient-50);
      }

      .cls-29 {
        fill: url(#linear-gradient-63);
      }

      .cls-30 {
        fill: url(#linear-gradient-67);
      }

      .cls-31 {
        fill: url(#linear-gradient-39);
      }

      .cls-32 {
        fill: url(#linear-gradient-10);
      }

      .cls-33 {
        fill: url(#linear-gradient-59);
      }

      .cls-34 {
        fill: url(#linear-gradient-49);
      }

      .cls-35 {
        fill: url(#linear-gradient-37);
      }

      .cls-36 {
        fill: url(#linear-gradient-16);
      }

      .cls-37 {
        fill: url(#linear-gradient-31);
      }

      .cls-38 {
        fill: url(#linear-gradient-61);
      }

      .cls-39 {
        fill: url(#linear-gradient-68);
      }

      .cls-40 {
        fill: url(#linear-gradient-62);
      }

      .cls-41 {
        fill: url(#linear-gradient-41);
      }

      .cls-42 {
        fill: url(#linear-gradient-76);
      }

      .cls-43 {
        fill: url(#linear-gradient-21);
      }

      .cls-44 {
        fill: url(#linear-gradient-72);
      }

      .cls-45 {
        fill: url(#linear-gradient-25);
      }

      .cls-46 {
        fill: url(#linear-gradient-5);
      }

      .cls-47 {
        fill: url(#linear-gradient-64);
      }

      .cls-48 {
        fill: url(#linear-gradient-54);
      }

      .cls-49 {
        fill: url(#linear-gradient-45);
      }

      .cls-50 {
        fill: url(#linear-gradient-55);
      }

      .cls-51 {
        fill: url(#linear-gradient-34);
      }

      .cls-52 {
        fill: url(#linear-gradient-65);
      }

      .cls-53 {
        fill: url(#linear-gradient-70);
      }

      .cls-54 {
        fill: url(#linear-gradient-79);
      }

      .cls-55 {
        fill: url(#linear-gradient-7);
      }

      .cls-56 {
        fill: url(#linear-gradient-66);
      }

      .cls-57 {
        fill: url(#linear-gradient-24);
      }

      .cls-58 {
        fill: url(#linear-gradient-73);
      }

      .cls-59 {
        fill: url(#linear-gradient-9);
      }

      .cls-60 {
        fill: url(#linear-gradient-22);
      }

      .cls-61 {
        fill: url(#linear-gradient-74);
      }

      .cls-62 {
        fill: url(#linear-gradient-42);
      }

      .cls-63 {
        fill: url(#linear-gradient-3);
      }

      .cls-64 {
        fill: url(#linear-gradient);
      }

      .cls-65 {
        fill: url(#linear-gradient-27);
      }

      .cls-66 {
        fill: url(#linear-gradient-33);
      }

      .cls-67 {
        fill: url(#linear-gradient-38);
      }

      .cls-68 {
        fill: url(#linear-gradient-29);
      }

      .cls-69 {
        fill: url(#linear-gradient-30);
      }

      .cls-70 {
        fill: url(#linear-gradient-23);
      }

      .cls-71 {
        fill: url(#linear-gradient-19);
      }

      .cls-72 {
        fill: url(#linear-gradient-71);
      }

      .cls-73 {
        fill: url(#linear-gradient-4);
      }

      .cls-74 {
        fill: url(#linear-gradient-77);
      }

      .cls-75 {
        fill: url(#linear-gradient-8);
      }

      .cls-76 {
        fill: url(#linear-gradient-44);
      }

      .cls-77 {
        fill: url(#linear-gradient-57);
      }

      .cls-78 {
        fill: url(#linear-gradient-47);
      }

      .cls-79 {
        fill: url(#linear-gradient-46);
      }

      .cls-80 {
        fill: url(#linear-gradient-12);
      }

      .cls-81 {
        fill: url(#linear-gradient-13);
      }

      .cls-82 {
        fill: url(#linear-gradient-26);
      }
    </style>
    <linearGradient id="linear-gradient" x1="0" y1="368.15" x2="120" y2="368.15" gradientUnits="userSpaceOnUse">
      <stop offset="0" stop-color="#36cc7c"/>
      <stop offset="1" stop-color="#228765"/>
    </linearGradient>
    <linearGradient id="linear-gradient-2" x1="120" x2="240" xlink:href="#linear-gradient"/>
    <linearGradient id="linear-gradient-3" x1="240" x2="360" xlink:href="#linear-gradient"/>
    <linearGradient id="linear-gradient-4" x1="360" x2="480" xlink:href="#linear-gradient"/>
    <linearGradient id="linear-gradient-5" x1="480" x2="600" xlink:href="#linear-gradient"/>
    <linearGradient id="linear-gradient-6" x1="600" x2="720" xlink:href="#linear-gradient"/>
    <linearGradient id="linear-gradient-7" x1="720" x2="840" xlink:href="#linear-gradient"/>
    <linearGradient id="linear-gradient-8" x1="840" x2="960" xlink:href="#linear-gradient"/>
    <linearGradient id="linear-gradient-9" x1="960" x2="1080" xlink:href="#linear-gradient"/>
    <linearGradient id="linear-gradient-10" y1="433.19" y2="433.19" xlink:href="#linear-gradient"/>
    <linearGradient id="linear-gradient-11" x1="120" y1="433.19" x2="240" y2="433.19" xlink:href="#linear-gradient"/>
    <linearGradient id="linear-gradient-12" x1="240" y1="433.19" x2="360" y2="433.19" xlink:href="#linear-gradient"/>
    <linearGradient id="linear-gradient-13" x1="360" y1="433.19" x2="480" y2="433.19" xlink:href="#linear-gradient"/>
    <linearGradient id="linear-gradient-14" x1="480" y1="433.19" x2="600" y2="433.19" xlink:href="#linear-gradient"/>
    <linearGradient id="linear-gradient-15" x1="600" y1="433.19" x2="720" y2="433.19" xlink:href="#linear-gradient"/>
    <linearGradient id="linear-gradient-16" x1="720" y1="433.19" x2="840" y2="433.19" xlink:href="#linear-gradient"/>
    <linearGradient id="linear-gradient-17" x1="840" y1="433.19" x2="960" y2="433.19" xlink:href="#linear-gradient"/>
    <linearGradient id="linear-gradient-18" x1="960" y1="433.19" x2="1080" y2="433.19" xlink:href="#linear-gradient"/>
    <linearGradient id="linear-gradient-19" y1="498.23" y2="498.23" xlink:href="#linear-gradient"/>
    <linearGradient id="linear-gradient-20" x1="120" y1="498.23" x2="240" y2="498.23" xlink:href="#linear-gradient"/>
    <linearGradient id="linear-gradient-21" x1="240" y1="498.23" x2="360" y2="498.23" xlink:href="#linear-gradient"/>
    <linearGradient id="linear-gradient-22" x1="360" y1="498.23" x2="480" y2="498.23" xlink:href="#linear-gradient"/>
    <linearGradient id="linear-gradient-23" x1="480" y1="498.23" x2="600" y2="498.23" xlink:href="#linear-gradient"/>
    <linearGradient id="linear-gradient-24" x1="600" y1="498.23" x2="720" y2="498.23" xlink:href="#linear-gradient"/>
    <linearGradient id="linear-gradient-25" x1="720" y1="498.23" x2="840" y2="498.23" xlink:href="#linear-gradient"/>
    <linearGradient id="linear-gradient-26" x1="840" y1="498.23" x2="960" y2="498.23" xlink:href="#linear-gradient"/>
    <linearGradient id="linear-gradient-27" x1="960" y1="498.23" x2="1080" y2="498.23" xlink:href="#linear-gradient"/>
    <linearGradient id="linear-gradient-28" y1="563.27" y2="563.27" xlink:href="#linear-gradient"/>
    <linearGradient id="linear-gradient-29" x1="120" y1="563.27" x2="240" y2="563.27" xlink:href="#linear-gradient"/>
    <linearGradient id="linear-gradient-30" x1="240" y1="563.27" x2="360" y2="563.27" xlink:href="#linear-gradient"/>
    <linearGradient id="linear-gradient-31" x1="360" y1="563.27" x2="480" y2="563.27" xlink:href="#linear-gradient"/>
    <linearGradient id="linear-gradient-32" x1="480" y1="563.27" x2="600" y2="563.27" xlink:href="#linear-gradient"/>
    <linearGradient id="linear-gradient-33" x1="600" y1="563.27" x2="720" y2="563.27" xlink:href="#linear-gradient"/>
    <linearGradient id="linear-gradient-34" x1="720" y1="563.27" x2="840" y2="563.27" xlink:href="#linear-gradient"/>
    <linearGradient id="linear-gradient-35" x1="840" y1="563.27" x2="960" y2="563.27" xlink:href="#linear-gradient"/>
    <linearGradient id="linear-gradient-36" x1="960" y1="563.27" x2="1080" y2="563.27" xlink:href="#linear-gradient"/>
    <linearGradient id="linear-gradient-37" y1="628.31" y2="628.31" xlink:href="#linear-gradient"/>
    <linearGradient id="linear-gradient-38" x1="120" y1="628.31" x2="240" y2="628.31" xlink:href="#linear-gradient"/>
    <linearGradient id="linear-gradient-39" x1="240" y1="628.31" x2="360" y2="628.31" xlink:href="#linear-gradient"/>
    <linearGradient id="linear-gradient-40" x1="360" y1="628.31" x2="480" y2="628.31" xlink:href="#linear-gradient"/>
    <linearGradient id="linear-gradient-41" x1="480" y1="628.31" x2="600" y2="628.31" xlink:href="#linear-gradient"/>
    <linearGradient id="linear-gradient-42" x1="600" y1="628.31" x2="720" y2="628.31" xlink:href="#linear-gradient"/>
    <linearGradient id="linear-gradient-43" x1="720" y1="628.31" x2="840" y2="628.31" xlink:href="#linear-gradient"/>
    <linearGradient id="linear-gradient-44" x1="840" y1="628.31" x2="960" y2="628.31" xlink:href="#linear-gradient"/>
    <linearGradient id="linear-gradient-45" x1="960" y1="628.31" x2="1080" y2="628.31" xlink:href="#linear-gradient"/>
    <linearGradient id="linear-gradient-46" y1="693.35" y2="693.35" xlink:href="#linear-gradient"/>
    <linearGradient id="linear-gradient-47" x1="120" y1="693.35" x2="240" y2="693.35" xlink:href="#linear-gradient"/>
    <linearGradient id="linear-gradient-48" x1="240" y1="693.35" x2="360" y2="693.35" xlink:href="#linear-gradient"/>
    <linearGradient id="linear-gradient-49" x1="360" y1="693.35" x2="480" y2="693.35" xlink:href="#linear-gradient"/>
    <linearGradient id="linear-gradient-50" x1="480" y1="693.35" x2="600" y2="693.35" xlink:href="#linear-gradient"/>
    <linearGradient id="linear-gradient-51" x1="600" y1="693.35" x2="720" y2="693.35" xlink:href="#linear-gradient"/>
    <linearGradient id="linear-gradient-52" x1="720" y1="693.35" x2="840" y2="693.35" xlink:href="#linear-gradient"/>
    <linearGradient id="linear-gradient-53" x1="840" y1="693.35" x2="960" y2="693.35" xlink:href="#linear-gradient"/>
    <linearGradient id="linear-gradient-54" x1="960" y1="693.35" x2="1080" y2="693.35" xlink:href="#linear-gradient"/>
    <linearGradient id="linear-gradient-55" y1="758.39" y2="758.39" xlink:href="#linear-gradient"/>
    <linearGradient id="linear-gradient-56" x1="120" y1="758.39" x2="240" y2="758.39" xlink:href="#linear-gradient"/>
    <linearGradient id="linear-gradient-57" x1="240" y1="758.39" x2="360" y2="758.39" xlink:href="#linear-gradient"/>
    <linearGradient id="linear-gradient-58" x1="360" y1="758.39" x2="480" y2="758.39" xlink:href="#linear-gradient"/>
    <linearGradient id="linear-gradient-59" x1="480" y1="758.39" x2="600" y2="758.39" xlink:href="#linear-gradient"/>
    <linearGradient id="linear-gradient-60" x1="600" y1="758.39" x2="720" y2="758.39" xlink:href="#linear-gradient"/>
    <linearGradient id="linear-gradient-61" x1="720" y1="758.39" x2="840" y2="758.39" xlink:href="#linear-gradient"/>
    <linearGradient id="linear-gradient-62" x1="840" y1="758.39" x2="960" y2="758.39" xlink:href="#linear-gradient"/>
    <linearGradient id="linear-gradient-63" x1="960" y1="758.39" x2="1080" y2="758.39" xlink:href="#linear-gradient"/>
    <linearGradient id="linear-gradient-64" y1="823.44" y2="823.44" xlink:href="#linear-gradient"/>
    <linearGradient id="linear-gradient-65" x1="120" y1="823.44" x2="240" y2="823.44" xlink:href="#linear-gradient"/>
    <linearGradient id="linear-gradient-66" x1="240" y1="823.44" x2="360" y2="823.44" xlink:href="#linear-gradient"/>
    <linearGradient id="linear-gradient-67" x1="360" y1="823.44" x2="480" y2="823.44" xlink:href="#linear-gradient"/>
    <linearGradient id="linear-gradient-68" x1="480" y1="823.44" x2="600" y2="823.44" xlink:href="#linear-gradient"/>
    <linearGradient id="linear-gradient-69" x1="600" y1="823.44" x2="720" y2="823.44" xlink:href="#linear-gradient"/>
    <linearGradient id="linear-gradient-70" x1="720" y1="823.44" x2="840" y2="823.44" xlink:href="#linear-gradient"/>
    <linearGradient id="linear-gradient-71" x1="840" y1="823.44" x2="960" y2="823.44" xlink:href="#linear-gradient"/>
    <linearGradient id="linear-gradient-72" x1="960" y1="823.44" x2="1080" y2="823.44" xlink:href="#linear-gradient"/>
    <linearGradient id="linear-gradient-73" y1="888.48" y2="888.48" xlink:href="#linear-gradient"/>
    <linearGradient id="linear-gradient-74" x1="120" y1="888.48" x2="240" y2="888.48" xlink:href="#linear-gradient"/>
    <linearGradient id="linear-gradient-75" x1="240" y1="888.48" x2="360" y2="888.48" xlink:href="#linear-gradient"/>
    <linearGradient id="linear-gradient-76" x1="360" y1="888.48" x2="480" y2="888.48" xlink:href="#linear-gradient"/>
    <linearGradient id="linear-gradient-77" x1="480" y1="888.48" x2="600" y2="888.48" xlink:href="#linear-gradient"/>
    <linearGradient id="linear-gradient-78" x1="600" y1="888.48" x2="720" y2="888.48" xlink:href="#linear-gradient"/>
    <linearGradient id="linear-gradient-79" x1="720" y1="888.48" x2="840" y2="888.48" xlink:href="#linear-gradient"/>
    <linearGradient id="linear-gradient-80" x1="840" y1="888.48" x2="960" y2="888.48" xlink:href="#linear-gradient"/>
    <linearGradient id="linear-gradient-81" x1="960" y1="888.48" x2="1080" y2="888.48" xlink:href="#linear-gradient"/>
  </defs>
  <g>
    <g>
      <path class="cls-64" d="m97,353.11c-.38-6.07-5.31-11-11.38-11.38-7.36-.47-13.43,5.6-12.97,12.97.38,6.07,5.31,11,11.38,11.38,7.36.46,13.43-5.61,12.96-12.97Zm12.69,6.69l-16.99,16.99c-2.16,2.16-5.01,3.24-7.88,3.24s-5.72-1.08-7.88-3.24l-6.64-6.64c-2.85-2.85-6.58-4.27-10.31-4.27s-7.46,1.42-10.31,4.27h0l-6.64,6.64c-2.16,2.16-5.02,3.24-7.88,3.24s-5.72-1.08-7.88-3.24l-16.98-16.99-10.31,10.31,16.98,16.98c5.01,5.01,11.6,7.51,18.19,7.51s13.18-2.5,18.19-7.51l6.64-6.64,6.64,6.64c5.01,5.01,11.6,7.51,18.19,7.51s13.18-2.5,18.19-7.51l16.98-16.98-10.31-10.31Zm-62.34-6.69c-.38-6.07-5.31-11-11.38-11.38-7.36-.47-13.43,5.6-12.97,12.97.38,6.07,5.31,11,11.38,11.38,7.36.46,13.43-5.61,12.97-12.97Z"/>
      <path class="cls-2" d="m217,353.11c-.38-6.07-5.31-11-11.38-11.38-7.36-.47-13.43,5.6-12.97,12.97.38,6.07,5.31,11,11.38,11.38,7.36.46,13.43-5.61,12.96-12.97Zm12.69,6.69l-16.99,16.99c-2.16,2.16-5.01,3.24-7.88,3.24s-5.72-1.08-7.88-3.24l-6.64-6.64c-2.85-2.85-6.58-4.27-10.31-4.27s-7.46,1.42-10.31,4.27h0l-6.64,6.64c-2.16,2.16-5.02,3.24-7.88,3.24s-5.72-1.08-7.88-3.24l-16.98-16.99-10.31,10.31,16.98,16.98c5.01,5.01,11.6,7.51,18.19,7.51s13.18-2.5,18.19-7.51l6.64-6.64,6.64,6.64c5.01,5.01,11.6,7.51,18.19,7.51s13.18-2.5,18.19-7.51l16.98-16.98-10.31-10.31Zm-62.34-6.69c-.38-6.07-5.31-11-11.38-11.38-7.36-.47-13.43,5.6-12.97,12.97.38,6.07,5.31,11,11.38,11.38,7.36.46,13.43-5.61,12.97-12.97Z"/>
      <path class="cls-63" d="m337,353.11c-.38-6.07-5.31-11-11.38-11.38-7.36-.47-13.43,5.6-12.97,12.97.38,6.07,5.31,11,11.38,11.38,7.36.46,13.43-5.61,12.96-12.97Zm12.69,6.69l-16.99,16.99c-2.16,2.16-5.01,3.24-7.88,3.24s-5.72-1.08-7.88-3.24l-6.64-6.64c-2.85-2.85-6.58-4.27-10.31-4.27s-7.46,1.42-10.31,4.27h0l-6.64,6.64c-2.16,2.16-5.02,3.24-7.88,3.24s-5.72-1.08-7.88-3.24l-16.98-16.99-10.31,10.31,16.98,16.98c5.01,5.01,11.6,7.51,18.19,7.51s13.18-2.5,18.19-7.51l6.64-6.64,6.64,6.64c5.01,5.01,11.6,7.51,18.19,7.51s13.18-2.5,18.19-7.51l16.98-16.98-10.31-10.31Zm-62.34-6.69c-.38-6.07-5.31-11-11.38-11.38-7.36-.47-13.43,5.6-12.97,12.97.38,6.07,5.31,11,11.38,11.38,7.36.46,13.43-5.61,12.97-12.97Z"/>
      <path class="cls-73" d="m457,353.11c-.38-6.07-5.31-11-11.38-11.38-7.36-.47-13.43,5.6-12.97,12.97.38,6.07,5.31,11,11.38,11.38,7.36.46,13.43-5.61,12.96-12.97Zm12.69,6.69l-16.99,16.99c-2.16,2.16-5.01,3.24-7.88,3.24s-5.72-1.08-7.88-3.24l-6.64-6.64c-2.85-2.85-6.58-4.27-10.31-4.27s-7.46,1.42-10.31,4.27h0l-6.64,6.64c-2.16,2.16-5.02,3.24-7.88,3.24s-5.72-1.08-7.88-3.24l-16.98-16.99-10.31,10.31,16.98,16.98c5.01,5.01,11.6,7.51,18.19,7.51s13.18-2.5,18.19-7.51l6.64-6.64,6.64,6.64c5.01,5.01,11.6,7.51,18.19,7.51s13.18-2.5,18.19-7.51l16.98-16.98-10.31-10.31Zm-62.34-6.69c-.38-6.07-5.31-11-11.38-11.38-7.36-.47-13.43,5.6-12.97,12.97.38,6.07,5.31,11,11.38,11.38,7.36.46,13.43-5.61,12.97-12.97Z"/>
      <path class="cls-46" d="m577,353.11c-.38-6.07-5.31-11-11.38-11.38-7.36-.47-13.43,5.6-12.97,12.97.38,6.07,5.31,11,11.38,11.38,7.36.46,13.43-5.61,12.96-12.97Zm12.69,6.69l-16.99,16.99c-2.16,2.16-5.01,3.24-7.88,3.24s-5.72-1.08-7.88-3.24l-6.64-6.64c-2.85-2.85-6.58-4.27-10.31-4.27s-7.46,1.42-10.31,4.27h0l-6.64,6.64c-2.16,2.16-5.02,3.24-7.88,3.24s-5.72-1.08-7.88-3.24l-16.98-16.99-10.31,10.31,16.98,16.98c5.01,5.01,11.6,7.51,18.19,7.51s13.18-2.5,18.19-7.51l6.64-6.64,6.64,6.64c5.01,5.01,11.6,7.51,18.19,7.51s13.18-2.5,18.19-7.51l16.98-16.98-10.31-10.31Zm-62.34-6.69c-.38-6.07-5.31-11-11.38-11.38-7.36-.47-13.43,5.6-12.97,12.97.38,6.07,5.31,11,11.38,11.38,7.36.46,13.43-5.61,12.97-12.97Z"/>
      <path class="cls-21" d="m697,353.11c-.38-6.07-5.31-11-11.38-11.38-7.36-.47-13.43,5.6-12.97,12.97.38,6.07,5.31,11,11.38,11.38,7.36.46,13.43-5.61,12.96-12.97Zm12.69,6.69l-16.99,16.99c-2.16,2.16-5.01,3.24-7.88,3.24s-5.72-1.08-7.88-3.24l-6.64-6.64c-2.85-2.85-6.58-4.27-10.31-4.27s-7.46,1.42-10.31,4.27h0l-6.64,6.64c-2.16,2.16-5.02,3.24-7.88,3.24s-5.72-1.08-7.88-3.24l-16.98-16.99-10.31,10.31,16.98,16.98c5.01,5.01,11.6,7.51,18.19,7.51s13.18-2.5,18.19-7.51l6.64-6.64,6.64,6.64c5.01,5.01,11.6,7.51,18.19,7.51s13.18-2.5,18.19-7.51l16.98-16.98-10.31-10.31Zm-62.34-6.69c-.38-6.07-5.31-11-11.38-11.38-7.36-.47-13.43,5.6-12.97,12.97.38,6.07,5.31,11,11.38,11.38,7.36.46,13.43-5.61,12.97-12.97Z"/>
      <path class="cls-55" d="m817,353.11c-.38-6.07-5.31-11-11.38-11.38-7.36-.47-13.43,5.6-12.97,12.97.38,6.07,5.31,11,11.38,11.38,7.36.46,13.43-5.61,12.96-12.97Zm12.69,6.69l-16.99,16.99c-2.16,2.16-5.01,3.24-7.88,3.24s-5.72-1.08-7.88-3.24l-6.64-6.64c-2.85-2.85-6.58-4.27-10.31-4.27s-7.46,1.42-10.31,4.27h0l-6.64,6.64c-2.16,2.16-5.02,3.24-7.88,3.24s-5.72-1.08-7.88-3.24l-16.98-16.99-10.31,10.31,16.98,16.98c5.01,5.01,11.6,7.51,18.19,7.51s13.18-2.5,18.19-7.51l6.64-6.64,6.64,6.64c5.01,5.01,11.6,7.51,18.19,7.51s13.18-2.5,18.19-7.51l16.98-16.98-10.31-10.31Zm-62.34-6.69c-.38-6.07-5.31-11-11.38-11.38-7.36-.47-13.43,5.6-12.97,12.97.38,6.07,5.31,11,11.38,11.38,7.36.46,13.43-5.61,12.97-12.97Z"/>
      <path class="cls-75" d="m937,353.11c-.38-6.07-5.31-11-11.38-11.38-7.36-.47-13.43,5.6-12.97,12.97.38,6.07,5.31,11,11.38,11.38,7.36.46,13.43-5.61,12.96-12.97Zm12.69,6.69l-16.99,16.99c-2.16,2.16-5.01,3.24-7.88,3.24s-5.72-1.08-7.88-3.24l-6.64-6.64c-2.85-2.85-6.58-4.27-10.31-4.27s-7.46,1.42-10.31,4.27h0l-6.64,6.64c-2.16,2.16-5.02,3.24-7.88,3.24s-5.72-1.08-7.88-3.24l-16.98-16.99-10.31,10.31,16.98,16.98c5.01,5.01,11.6,7.51,18.19,7.51s13.18-2.5,18.19-7.51l6.64-6.64,6.64,6.64c5.01,5.01,11.6,7.51,18.19,7.51s13.18-2.5,18.19-7.51l16.98-16.98-10.31-10.31Zm-62.34-6.69c-.38-6.07-5.31-11-11.38-11.38-7.36-.47-13.43,5.6-12.97,12.97.38,6.07,5.31,11,11.38,11.38,7.36.46,13.43-5.61,12.97-12.97Z"/>
      <path class="cls-59" d="m1057,353.11c-.38-6.07-5.31-11-11.38-11.38-7.36-.47-13.43,5.6-12.97,12.97.38,6.07,5.31,11,11.38,11.38,7.36.46,13.43-5.61,12.96-12.97Zm12.69,6.69l-16.99,16.99c-2.16,2.16-5.01,3.24-7.88,3.24s-5.72-1.08-7.88-3.24l-6.64-6.64c-2.85-2.85-6.58-4.27-10.31-4.27s-7.46,1.42-10.31,4.27h0l-6.64,6.64c-2.16,2.16-5.02,3.24-7.88,3.24s-5.72-1.08-7.88-3.24l-16.98-16.99-10.31,10.31,16.98,16.98c5.01,5.01,11.6,7.51,18.19,7.51s13.18-2.5,18.19-7.51l6.64-6.64,6.64,6.64c5.01,5.01,11.6,7.51,18.19,7.51s13.18-2.5,18.19-7.51l16.98-16.98-10.31-10.31Zm-62.34-6.69c-.38-6.07-5.31-11-11.38-11.38-7.36-.47-13.43,5.6-12.97,12.97.38,6.07,5.31,11,11.38,11.38,7.36.46,13.43-5.61,12.97-12.97Z"/>
    </g>
    <g>
      <path class="cls-32" d="m97,418.15c-.38-6.07-5.31-11-11.38-11.38-7.36-.47-13.43,5.6-12.97,12.97.38,6.07,5.31,11,11.38,11.38,7.36.46,13.43-5.61,12.96-12.97Zm12.69,6.69l-16.99,16.99c-2.16,2.16-5.01,3.24-7.88,3.24s-5.72-1.08-7.88-3.24l-6.64-6.64c-2.85-2.85-6.58-4.27-10.31-4.27s-7.46,1.42-10.31,4.27h0l-6.64,6.64c-2.16,2.16-5.02,3.24-7.88,3.24s-5.72-1.08-7.88-3.24l-16.98-16.99-10.31,10.31,16.98,16.98c5.01,5.01,11.6,7.51,18.19,7.51s13.18-2.5,18.19-7.51l6.64-6.64,6.64,6.64c5.01,5.01,11.6,7.51,18.19,7.51s13.18-2.5,18.19-7.51l16.98-16.98-10.31-10.31Zm-62.34-6.69c-.38-6.07-5.31-11-11.38-11.38-7.36-.47-13.43,5.6-12.97,12.97.38,6.07,5.31,11,11.38,11.38,7.36.46,13.43-5.61,12.97-12.97Z"/>
      <path class="cls-27" d="m217,418.15c-.38-6.07-5.31-11-11.38-11.38-7.36-.47-13.43,5.6-12.97,12.97.38,6.07,5.31,11,11.38,11.38,7.36.46,13.43-5.61,12.96-12.97Zm12.69,6.69l-16.99,16.99c-2.16,2.16-5.01,3.24-7.88,3.24s-5.72-1.08-7.88-3.24l-6.64-6.64c-2.85-2.85-6.58-4.27-10.31-4.27s-7.46,1.42-10.31,4.27h0l-6.64,6.64c-2.16,2.16-5.02,3.24-7.88,3.24s-5.72-1.08-7.88-3.24l-16.98-16.99-10.31,10.31,16.98,16.98c5.01,5.01,11.6,7.51,18.19,7.51s13.18-2.5,18.19-7.51l6.64-6.64,6.64,6.64c5.01,5.01,11.6,7.51,18.19,7.51s13.18-2.5,18.19-7.51l16.98-16.98-10.31-10.31Zm-62.34-6.69c-.38-6.07-5.31-11-11.38-11.38-7.36-.47-13.43,5.6-12.97,12.97.38,6.07,5.31,11,11.38,11.38,7.36.46,13.43-5.61,12.97-12.97Z"/>
      <path class="cls-80" d="m337,418.15c-.38-6.07-5.31-11-11.38-11.38-7.36-.47-13.43,5.6-12.97,12.97.38,6.07,5.31,11,11.38,11.38,7.36.46,13.43-5.61,12.96-12.97Zm12.69,6.69l-16.99,16.99c-2.16,2.16-5.01,3.24-7.88,3.24s-5.72-1.08-7.88-3.24l-6.64-6.64c-2.85-2.85-6.58-4.27-10.31-4.27s-7.46,1.42-10.31,4.27h0l-6.64,6.64c-2.16,2.16-5.02,3.24-7.88,3.24s-5.72-1.08-7.88-3.24l-16.98-16.99-10.31,10.31,16.98,16.98c5.01,5.01,11.6,7.51,18.19,7.51s13.18-2.5,18.19-7.51l6.64-6.64,6.64,6.64c5.01,5.01,11.6,7.51,18.19,7.51s13.18-2.5,18.19-7.51l16.98-16.98-10.31-10.31Zm-62.34-6.69c-.38-6.07-5.31-11-11.38-11.38-7.36-.47-13.43,5.6-12.97,12.97.38,6.07,5.31,11,11.38,11.38,7.36.46,13.43-5.61,12.97-12.97Z"/>
      <path class="cls-81" d="m457,418.15c-.38-6.07-5.31-11-11.38-11.38-7.36-.47-13.43,5.6-12.97,12.97.38,6.07,5.31,11,11.38,11.38,7.36.46,13.43-5.61,12.96-12.97Zm12.69,6.69l-16.99,16.99c-2.16,2.16-5.01,3.24-7.88,3.24s-5.72-1.08-7.88-3.24l-6.64-6.64c-2.85-2.85-6.58-4.27-10.31-4.27s-7.46,1.42-10.31,4.27h0l-6.64,6.64c-2.16,2.16-5.02,3.24-7.88,3.24s-5.72-1.08-7.88-3.24l-16.98-16.99-10.31,10.31,16.98,16.98c5.01,5.01,11.6,7.51,18.19,7.51s13.18-2.5,18.19-7.51l6.64-6.64,6.64,6.64c5.01,5.01,11.6,7.51,18.19,7.51s13.18-2.5,18.19-7.51l16.98-16.98-10.31-10.31Zm-62.34-6.69c-.38-6.07-5.31-11-11.38-11.38-7.36-.47-13.43,5.6-12.97,12.97.38,6.07,5.31,11,11.38,11.38,7.36.46,13.43-5.61,12.97-12.97Z"/>
      <path class="cls-16" d="m577,418.15c-.38-6.07-5.31-11-11.38-11.38-7.36-.47-13.43,5.6-12.97,12.97.38,6.07,5.31,11,11.38,11.38,7.36.46,13.43-5.61,12.96-12.97Zm12.69,6.69l-16.99,16.99c-2.16,2.16-5.01,3.24-7.88,3.24s-5.72-1.08-7.88-3.24l-6.64-6.64c-2.85-2.85-6.58-4.27-10.31-4.27s-7.46,1.42-10.31,4.27h0l-6.64,6.64c-2.16,2.16-5.02,3.24-7.88,3.24s-5.72-1.08-7.88-3.24l-16.98-16.99-10.31,10.31,16.98,16.98c5.01,5.01,11.6,7.51,18.19,7.51s13.18-2.5,18.19-7.51l6.64-6.64,6.64,6.64c5.01,5.01,11.6,7.51,18.19,7.51s13.18-2.5,18.19-7.51l16.98-16.98-10.31-10.31Zm-62.34-6.69c-.38-6.07-5.31-11-11.38-11.38-7.36-.47-13.43,5.6-12.97,12.97.38,6.07,5.31,11,11.38,11.38,7.36.46,13.43-5.61,12.97-12.97Z"/>
      <path class="cls-7" d="m697,418.15c-.38-6.07-5.31-11-11.38-11.38-7.36-.47-13.43,5.6-12.97,12.97.38,6.07,5.31,11,11.38,11.38,7.36.46,13.43-5.61,12.96-12.97Zm12.69,6.69l-16.99,16.99c-2.16,2.16-5.01,3.24-7.88,3.24s-5.72-1.08-7.88-3.24l-6.64-6.64c-2.85-2.85-6.58-4.27-10.31-4.27s-7.46,1.42-10.31,4.27h0l-6.64,6.64c-2.16,2.16-5.02,3.24-7.88,3.24s-5.72-1.08-7.88-3.24l-16.98-16.99-10.31,10.31,16.98,16.98c5.01,5.01,11.6,7.51,18.19,7.51s13.18-2.5,18.19-7.51l6.64-6.64,6.64,6.64c5.01,5.01,11.6,7.51,18.19,7.51s13.18-2.5,18.19-7.51l16.98-16.98-10.31-10.31Zm-62.34-6.69c-.38-6.07-5.31-11-11.38-11.38-7.36-.47-13.43,5.6-12.97,12.97.38,6.07,5.31,11,11.38,11.38,7.36.46,13.43-5.61,12.97-12.97Z"/>
      <path class="cls-36" d="m817,418.15c-.38-6.07-5.31-11-11.38-11.38-7.36-.47-13.43,5.6-12.97,12.97.38,6.07,5.31,11,11.38,11.38,7.36.46,13.43-5.61,12.96-12.97Zm12.69,6.69l-16.99,16.99c-2.16,2.16-5.01,3.24-7.88,3.24s-5.72-1.08-7.88-3.24l-6.64-6.64c-2.85-2.85-6.58-4.27-10.31-4.27s-7.46,1.42-10.31,4.27h0l-6.64,6.64c-2.16,2.16-5.02,3.24-7.88,3.24s-5.72-1.08-7.88-3.24l-16.98-16.99-10.31,10.31,16.98,16.98c5.01,5.01,11.6,7.51,18.19,7.51s13.18-2.5,18.19-7.51l6.64-6.64,6.64,6.64c5.01,5.01,11.6,7.51,18.19,7.51s13.18-2.5,18.19-7.51l16.98-16.98-10.31-10.31Zm-62.34-6.69c-.38-6.07-5.31-11-11.38-11.38-7.36-.47-13.43,5.6-12.97,12.97.38,6.07,5.31,11,11.38,11.38,7.36.46,13.43-5.61,12.97-12.97Z"/>
      <path class="cls-4" d="m937,418.15c-.38-6.07-5.31-11-11.38-11.38-7.36-.47-13.43,5.6-12.97,12.97.38,6.07,5.31,11,11.38,11.38,7.36.46,13.43-5.61,12.96-12.97Zm12.69,6.69l-16.99,16.99c-2.16,2.16-5.01,3.24-7.88,3.24s-5.72-1.08-7.88-3.24l-6.64-6.64c-2.85-2.85-6.58-4.27-10.31-4.27s-7.46,1.42-10.31,4.27h0l-6.64,6.64c-2.16,2.16-5.02,3.24-7.88,3.24s-5.72-1.08-7.88-3.24l-16.98-16.99-10.31,10.31,16.98,16.98c5.01,5.01,11.6,7.51,18.19,7.51s13.18-2.5,18.19-7.51l6.64-6.64,6.64,6.64c5.01,5.01,11.6,7.51,18.19,7.51s13.18-2.5,18.19-7.51l16.98-16.98-10.31-10.31Zm-62.34-6.69c-.38-6.07-5.31-11-11.38-11.38-7.36-.47-13.43,5.6-12.97,12.97.38,6.07,5.31,11,11.38,11.38,7.36.46,13.43-5.61,12.97-12.97Z"/>
      <path class="cls-11" d="m1057,418.15c-.38-6.07-5.31-11-11.38-11.38-7.36-.47-13.43,5.6-12.97,12.97.38,6.07,5.31,11,11.38,11.38,7.36.46,13.43-5.61,12.96-12.97Zm12.69,6.69l-16.99,16.99c-2.16,2.16-5.01,3.24-7.88,3.24s-5.72-1.08-7.88-3.24l-6.64-6.64c-2.85-2.85-6.58-4.27-10.31-4.27s-7.46,1.42-10.31,4.27h0l-6.64,6.64c-2.16,2.16-5.02,3.24-7.88,3.24s-5.72-1.08-7.88-3.24l-16.98-16.99-10.31,10.31,16.98,16.98c5.01,5.01,11.6,7.51,18.19,7.51s13.18-2.5,18.19-7.51l6.64-6.64,6.64,6.64c5.01,5.01,11.6,7.51,18.19,7.51s13.18-2.5,18.19-7.51l16.98-16.98-10.31-10.31Zm-62.34-6.69c-.38-6.07-5.31-11-11.38-11.38-7.36-.47-13.43,5.6-12.97,12.97.38,6.07,5.31,11,11.38,11.38,7.36.46,13.43-5.61,12.97-12.97Z"/>
    </g>
    <g>
      <path class="cls-71" d="m97,483.19c-.38-6.07-5.31-11-11.38-11.38-7.36-.47-13.43,5.6-12.97,12.97.38,6.07,5.31,11,11.38,11.38,7.36.46,13.43-5.61,12.96-12.97Zm12.69,6.69l-16.99,16.99c-2.16,2.16-5.01,3.24-7.88,3.24s-5.72-1.08-7.88-3.24l-6.64-6.64c-2.85-2.85-6.58-4.27-10.31-4.27s-7.46,1.42-10.31,4.27h0l-6.64,6.64c-2.16,2.16-5.02,3.24-7.88,3.24s-5.72-1.08-7.88-3.24l-16.98-16.99-10.31,10.31,16.98,16.98c5.01,5.01,11.6,7.51,18.19,7.51s13.18-2.5,18.19-7.51l6.64-6.64,6.64,6.64c5.01,5.01,11.6,7.51,18.19,7.51s13.18-2.5,18.19-7.51l16.98-16.98-10.31-10.31Zm-62.34-6.69c-.38-6.07-5.31-11-11.38-11.38-7.36-.47-13.43,5.6-12.97,12.97.38,6.07,5.31,11,11.38,11.38,7.36.46,13.43-5.61,12.97-12.97Z"/>
      <path class="cls-19" d="m217,483.19c-.38-6.07-5.31-11-11.38-11.38-7.36-.47-13.43,5.6-12.97,12.97.38,6.07,5.31,11,11.38,11.38,7.36.46,13.43-5.61,12.96-12.97Zm12.69,6.69l-16.99,16.99c-2.16,2.16-5.01,3.24-7.88,3.24s-5.72-1.08-7.88-3.24l-6.64-6.64c-2.85-2.85-6.58-4.27-10.31-4.27s-7.46,1.42-10.31,4.27h0l-6.64,6.64c-2.16,2.16-5.02,3.24-7.88,3.24s-5.72-1.08-7.88-3.24l-16.98-16.99-10.31,10.31,16.98,16.98c5.01,5.01,11.6,7.51,18.19,7.51s13.18-2.5,18.19-7.51l6.64-6.64,6.64,6.64c5.01,5.01,11.6,7.51,18.19,7.51s13.18-2.5,18.19-7.51l16.98-16.98-10.31-10.31Zm-62.34-6.69c-.38-6.07-5.31-11-11.38-11.38-7.36-.47-13.43,5.6-12.97,12.97.38,6.07,5.31,11,11.38,11.38,7.36.46,13.43-5.61,12.97-12.97Z"/>
      <path class="cls-43" d="m337,483.19c-.38-6.07-5.31-11-11.38-11.38-7.36-.47-13.43,5.6-12.97,12.97.38,6.07,5.31,11,11.38,11.38,7.36.46,13.43-5.61,12.96-12.97Zm12.69,6.69l-16.99,16.99c-2.16,2.16-5.01,3.24-7.88,3.24s-5.72-1.08-7.88-3.24l-6.64-6.64c-2.85-2.85-6.58-4.27-10.31-4.27s-7.46,1.42-10.31,4.27h0l-6.64,6.64c-2.16,2.16-5.02,3.24-7.88,3.24s-5.72-1.08-7.88-3.24l-16.98-16.99-10.31,10.31,16.98,16.98c5.01,5.01,11.6,7.51,18.19,7.51s13.18-2.5,18.19-7.51l6.64-6.64,6.64,6.64c5.01,5.01,11.6,7.51,18.19,7.51s13.18-2.5,18.19-7.51l16.98-16.98-10.31-10.31Zm-62.34-6.69c-.38-6.07-5.31-11-11.38-11.38-7.36-.47-13.43,5.6-12.97,12.97.38,6.07,5.31,11,11.38,11.38,7.36.46,13.43-5.61,12.97-12.97Z"/>
      <path class="cls-60" d="m457,483.19c-.38-6.07-5.31-11-11.38-11.38-7.36-.47-13.43,5.6-12.97,12.97.38,6.07,5.31,11,11.38,11.38,7.36.46,13.43-5.61,12.96-12.97Zm12.69,6.69l-16.99,16.99c-2.16,2.16-5.01,3.24-7.88,3.24s-5.72-1.08-7.88-3.24l-6.64-6.64c-2.85-2.85-6.58-4.27-10.31-4.27s-7.46,1.42-10.31,4.27h0l-6.64,6.64c-2.16,2.16-5.02,3.24-7.88,3.24s-5.72-1.08-7.88-3.24l-16.98-16.99-10.31,10.31,16.98,16.98c5.01,5.01,11.6,7.51,18.19,7.51s13.18-2.5,18.19-7.51l6.64-6.64,6.64,6.64c5.01,5.01,11.6,7.51,18.19,7.51s13.18-2.5,18.19-7.51l16.98-16.98-10.31-10.31Zm-62.34-6.69c-.38-6.07-5.31-11-11.38-11.38-7.36-.47-13.43,5.6-12.97,12.97.38,6.07,5.31,11,11.38,11.38,7.36.46,13.43-5.61,12.97-12.97Z"/>
      <path class="cls-70" d="m577,483.19c-.38-6.07-5.31-11-11.38-11.38-7.36-.47-13.43,5.6-12.97,12.97.38,6.07,5.31,11,11.38,11.38,7.36.46,13.43-5.61,12.96-12.97Zm12.69,6.69l-16.99,16.99c-2.16,2.16-5.01,3.24-7.88,3.24s-5.72-1.08-7.88-3.24l-6.64-6.64c-2.85-2.85-6.58-4.27-10.31-4.27s-7.46,1.42-10.31,4.27h0l-6.64,6.64c-2.16,2.16-5.02,3.24-7.88,3.24s-5.72-1.08-7.88-3.24l-16.98-16.99-10.31,10.31,16.98,16.98c5.01,5.01,11.6,7.51,18.19,7.51s13.18-2.5,18.19-7.51l6.64-6.64,6.64,6.64c5.01,5.01,11.6,7.51,18.19,7.51s13.18-2.5,18.19-7.51l16.98-16.98-10.31-10.31Zm-62.34-6.69c-.38-6.07-5.31-11-11.38-11.38-7.36-.47-13.43,5.6-12.97,12.97.38,6.07,5.31,11,11.38,11.38,7.36.46,13.43-5.61,12.97-12.97Z"/>
      <path class="cls-57" d="m697,483.19c-.38-6.07-5.31-11-11.38-11.38-7.36-.47-13.43,5.6-12.97,12.97.38,6.07,5.31,11,11.38,11.38,7.36.46,13.43-5.61,12.96-12.97Zm12.69,6.69l-16.99,16.99c-2.16,2.16-5.01,3.24-7.88,3.24s-5.72-1.08-7.88-3.24l-6.64-6.64c-2.85-2.85-6.58-4.27-10.31-4.27s-7.46,1.42-10.31,4.27h0l-6.64,6.64c-2.16,2.16-5.02,3.24-7.88,3.24s-5.72-1.08-7.88-3.24l-16.98-16.99-10.31,10.31,16.98,16.98c5.01,5.01,11.6,7.51,18.19,7.51s13.18-2.5,18.19-7.51l6.64-6.64,6.64,6.64c5.01,5.01,11.6,7.51,18.19,7.51s13.18-2.5,18.19-7.51l16.98-16.98-10.31-10.31Zm-62.34-6.69c-.38-6.07-5.31-11-11.38-11.38-7.36-.47-13.43,5.6-12.97,12.97.38,6.07,5.31,11,11.38,11.38,7.36.46,13.43-5.61,12.97-12.97Z"/>
      <path class="cls-45" d="m817,483.19c-.38-6.07-5.31-11-11.38-11.38-7.36-.47-13.43,5.6-12.97,12.97.38,6.07,5.31,11,11.38,11.38,7.36.46,13.43-5.61,12.96-12.97Zm12.69,6.69l-16.99,16.99c-2.16,2.16-5.01,3.24-7.88,3.24s-5.72-1.08-7.88-3.24l-6.64-6.64c-2.85-2.85-6.58-4.27-10.31-4.27s-7.46,1.42-10.31,4.27h0l-6.64,6.64c-2.16,2.16-5.02,3.24-7.88,3.24s-5.72-1.08-7.88-3.24l-16.98-16.99-10.31,10.31,16.98,16.98c5.01,5.01,11.6,7.51,18.19,7.51s13.18-2.5,18.19-7.51l6.64-6.64,6.64,6.64c5.01,5.01,11.6,7.51,18.19,7.51s13.18-2.5,18.19-7.51l16.98-16.98-10.31-10.31Zm-62.34-6.69c-.38-6.07-5.31-11-11.38-11.38-7.36-.47-13.43,5.6-12.97,12.97.38,6.07,5.31,11,11.38,11.38,7.36.46,13.43-5.61,12.97-12.97Z"/>
      <path class="cls-82" d="m937,483.19c-.38-6.07-5.31-11-11.38-11.38-7.36-.47-13.43,5.6-12.97,12.97.38,6.07,5.31,11,11.38,11.38,7.36.46,13.43-5.61,12.96-12.97Zm12.69,6.69l-16.99,16.99c-2.16,2.16-5.01,3.24-7.88,3.24s-5.72-1.08-7.88-3.24l-6.64-6.64c-2.85-2.85-6.58-4.27-10.31-4.27s-7.46,1.42-10.31,4.27h0l-6.64,6.64c-2.16,2.16-5.02,3.24-7.88,3.24s-5.72-1.08-7.88-3.24l-16.98-16.99-10.31,10.31,16.98,16.98c5.01,5.01,11.6,7.51,18.19,7.51s13.18-2.5,18.19-7.51l6.64-6.64,6.64,6.64c5.01,5.01,11.6,7.51,18.19,7.51s13.18-2.5,18.19-7.51l16.98-16.98-10.31-10.31Zm-62.34-6.69c-.38-6.07-5.31-11-11.38-11.38-7.36-.47-13.43,5.6-12.97,12.97.38,6.07,5.31,11,11.38,11.38,7.36.46,13.43-5.61,12.97-12.97Z"/>
      <path class="cls-65" d="m1057,483.19c-.38-6.07-5.31-11-11.38-11.38-7.36-.47-13.43,5.6-12.97,12.97.38,6.07,5.31,11,11.38,11.38,7.36.46,13.43-5.61,12.96-12.97Zm12.69,6.69l-16.99,16.99c-2.16,2.16-5.01,3.24-7.88,3.24s-5.72-1.08-7.88-3.24l-6.64-6.64c-2.85-2.85-6.58-4.27-10.31-4.27s-7.46,1.42-10.31,4.27h0l-6.64,6.64c-2.16,2.16-5.02,3.24-7.88,3.24s-5.72-1.08-7.88-3.24l-16.98-16.99-10.31,10.31,16.98,16.98c5.01,5.01,11.6,7.51,18.19,7.51s13.18-2.5,18.19-7.51l6.64-6.64,6.64,6.64c5.01,5.01,11.6,7.51,18.19,7.51s13.18-2.5,18.19-7.51l16.98-16.98-10.31-10.31Zm-62.34-6.69c-.38-6.07-5.31-11-11.38-11.38-7.36-.47-13.43,5.6-12.97,12.97.38,6.07,5.31,11,11.38,11.38,7.36.46,13.43-5.61,12.97-12.97Z"/>
    </g>
    <g>
      <path class="cls-15" d="m97,548.23c-.38-6.07-5.31-11-11.38-11.38-7.36-.47-13.43,5.6-12.97,12.97.38,6.07,5.31,11,11.38,11.38,7.36.46,13.43-5.61,12.96-12.97Zm12.69,6.69l-16.99,16.99c-2.16,2.16-5.01,3.24-7.88,3.24s-5.72-1.08-7.88-3.24l-6.64-6.64c-2.85-2.85-6.58-4.27-10.31-4.27s-7.46,1.42-10.31,4.27h0l-6.64,6.64c-2.16,2.16-5.02,3.24-7.88,3.24s-5.72-1.08-7.88-3.24l-16.98-16.99-10.31,10.31,16.98,16.98c5.01,5.01,11.6,7.51,18.19,7.51s13.18-2.5,18.19-7.51l6.64-6.64,6.64,6.64c5.01,5.01,11.6,7.51,18.19,7.51s13.18-2.5,18.19-7.51l16.98-16.98-10.31-10.31Zm-62.34-6.69c-.38-6.07-5.31-11-11.38-11.38-7.36-.47-13.43,5.6-12.97,12.97.38,6.07,5.31,11,11.38,11.38,7.36.46,13.43-5.61,12.97-12.97Z"/>
      <path class="cls-68" d="m217,548.23c-.38-6.07-5.31-11-11.38-11.38-7.36-.47-13.43,5.6-12.97,12.97.38,6.07,5.31,11,11.38,11.38,7.36.46,13.43-5.61,12.96-12.97Zm12.69,6.69l-16.99,16.99c-2.16,2.16-5.01,3.24-7.88,3.24s-5.72-1.08-7.88-3.24l-6.64-6.64c-2.85-2.85-6.58-4.27-10.31-4.27s-7.46,1.42-10.31,4.27h0l-6.64,6.64c-2.16,2.16-5.02,3.24-7.88,3.24s-5.72-1.08-7.88-3.24l-16.98-16.99-10.31,10.31,16.98,16.98c5.01,5.01,11.6,7.51,18.19,7.51s13.18-2.5,18.19-7.51l6.64-6.64,6.64,6.64c5.01,5.01,11.6,7.51,18.19,7.51s13.18-2.5,18.19-7.51l16.98-16.98-10.31-10.31Zm-62.34-6.69c-.38-6.07-5.31-11-11.38-11.38-7.36-.47-13.43,5.6-12.97,12.97.38,6.07,5.31,11,11.38,11.38,7.36.46,13.43-5.61,12.97-12.97Z"/>
      <path class="cls-69" d="m337,548.23c-.38-6.07-5.31-11-11.38-11.38-7.36-.47-13.43,5.6-12.97,12.97.38,6.07,5.31,11,11.38,11.38,7.36.46,13.43-5.61,12.96-12.97Zm12.69,6.69l-16.99,16.99c-2.16,2.16-5.01,3.24-7.88,3.24s-5.72-1.08-7.88-3.24l-6.64-6.64c-2.85-2.85-6.58-4.27-10.31-4.27s-7.46,1.42-10.31,4.27h0l-6.64,6.64c-2.16,2.16-5.02,3.24-7.88,3.24s-5.72-1.08-7.88-3.24l-16.98-16.99-10.31,10.31,16.98,16.98c5.01,5.01,11.6,7.51,18.19,7.51s13.18-2.5,18.19-7.51l6.64-6.64,6.64,6.64c5.01,5.01,11.6,7.51,18.19,7.51s13.18-2.5,18.19-7.51l16.98-16.98-10.31-10.31Zm-62.34-6.69c-.38-6.07-5.31-11-11.38-11.38-7.36-.47-13.43,5.6-12.97,12.97.38,6.07,5.31,11,11.38,11.38,7.36.46,13.43-5.61,12.97-12.97Z"/>
      <path class="cls-37" d="m457,548.23c-.38-6.07-5.31-11-11.38-11.38-7.36-.47-13.43,5.6-12.97,12.97.38,6.07,5.31,11,11.38,11.38,7.36.46,13.43-5.61,12.96-12.97Zm12.69,6.69l-16.99,16.99c-2.16,2.16-5.01,3.24-7.88,3.24s-5.72-1.08-7.88-3.24l-6.64-6.64c-2.85-2.85-6.58-4.27-10.31-4.27s-7.46,1.42-10.31,4.27h0l-6.64,6.64c-2.16,2.16-5.02,3.24-7.88,3.24s-5.72-1.08-7.88-3.24l-16.98-16.99-10.31,10.31,16.98,16.98c5.01,5.01,11.6,7.51,18.19,7.51s13.18-2.5,18.19-7.51l6.64-6.64,6.64,6.64c5.01,5.01,11.6,7.51,18.19,7.51s13.18-2.5,18.19-7.51l16.98-16.98-10.31-10.31Zm-62.34-6.69c-.38-6.07-5.31-11-11.38-11.38-7.36-.47-13.43,5.6-12.97,12.97.38,6.07,5.31,11,11.38,11.38,7.36.46,13.43-5.61,12.97-12.97Z"/>
      <path class="cls-26" d="m577,548.23c-.38-6.07-5.31-11-11.38-11.38-7.36-.47-13.43,5.6-12.97,12.97.38,6.07,5.31,11,11.38,11.38,7.36.46,13.43-5.61,12.96-12.97Zm12.69,6.69l-16.99,16.99c-2.16,2.16-5.01,3.24-7.88,3.24s-5.72-1.08-7.88-3.24l-6.64-6.64c-2.85-2.85-6.58-4.27-10.31-4.27s-7.46,1.42-10.31,4.27h0l-6.64,6.64c-2.16,2.16-5.02,3.24-7.88,3.24s-5.72-1.08-7.88-3.24l-16.98-16.99-10.31,10.31,16.98,16.98c5.01,5.01,11.6,7.51,18.19,7.51s13.18-2.5,18.19-7.51l6.64-6.64,6.64,6.64c5.01,5.01,11.6,7.51,18.19,7.51s13.18-2.5,18.19-7.51l16.98-16.98-10.31-10.31Zm-62.34-6.69c-.38-6.07-5.31-11-11.38-11.38-7.36-.47-13.43,5.6-12.97,12.97.38,6.07,5.31,11,11.38,11.38,7.36.46,13.43-5.61,12.97-12.97Z"/>
      <path class="cls-66" d="m697,548.23c-.38-6.07-5.31-11-11.38-11.38-7.36-.47-13.43,5.6-12.97,12.97.38,6.07,5.31,11,11.38,11.38,7.36.46,13.43-5.61,12.96-12.97Zm12.69,6.69l-16.99,16.99c-2.16,2.16-5.01,3.24-7.88,3.24s-5.72-1.08-7.88-3.24l-6.64-6.64c-2.85-2.85-6.58-4.27-10.31-4.27s-7.46,1.42-10.31,4.27h0l-6.64,6.64c-2.16,2.16-5.02,3.24-7.88,3.24s-5.72-1.08-7.88-3.24l-16.98-16.99-10.31,10.31,16.98,16.98c5.01,5.01,11.6,7.51,18.19,7.51s13.18-2.5,18.19-7.51l6.64-6.64,6.64,6.64c5.01,5.01,11.6,7.51,18.19,7.51s13.18-2.5,18.19-7.51l16.98-16.98-10.31-10.31Zm-62.34-6.69c-.38-6.07-5.31-11-11.38-11.38-7.36-.47-13.43,5.6-12.97,12.97.38,6.07,5.31,11,11.38,11.38,7.36.46,13.43-5.61,12.97-12.97Z"/>
      <path class="cls-51" d="m817,548.23c-.38-6.07-5.31-11-11.38-11.38-7.36-.47-13.43,5.6-12.97,12.97.38,6.07,5.31,11,11.38,11.38,7.36.46,13.43-5.61,12.96-12.97Zm12.69,6.69l-16.99,16.99c-2.16,2.16-5.01,3.24-7.88,3.24s-5.72-1.08-7.88-3.24l-6.64-6.64c-2.85-2.85-6.58-4.27-10.31-4.27s-7.46,1.42-10.31,4.27h0l-6.64,6.64c-2.16,2.16-5.02,3.24-7.88,3.24s-5.72-1.08-7.88-3.24l-16.98-16.99-10.31,10.31,16.98,16.98c5.01,5.01,11.6,7.51,18.19,7.51s13.18-2.5,18.19-7.51l6.64-6.64,6.64,6.64c5.01,5.01,11.6,7.51,18.19,7.51s13.18-2.5,18.19-7.51l16.98-16.98-10.31-10.31Zm-62.34-6.69c-.38-6.07-5.31-11-11.38-11.38-7.36-.47-13.43,5.6-12.97,12.97.38,6.07,5.31,11,11.38,11.38,7.36.46,13.43-5.61,12.97-12.97Z"/>
      <path class="cls-24" d="m937,548.23c-.38-6.07-5.31-11-11.38-11.38-7.36-.47-13.43,5.6-12.97,12.97.38,6.07,5.31,11,11.38,11.38,7.36.46,13.43-5.61,12.96-12.97Zm12.69,6.69l-16.99,16.99c-2.16,2.16-5.01,3.24-7.88,3.24s-5.72-1.08-7.88-3.24l-6.64-6.64c-2.85-2.85-6.58-4.27-10.31-4.27s-7.46,1.42-10.31,4.27h0l-6.64,6.64c-2.16,2.16-5.02,3.24-7.88,3.24s-5.72-1.08-7.88-3.24l-16.98-16.99-10.31,10.31,16.98,16.98c5.01,5.01,11.6,7.51,18.19,7.51s13.18-2.5,18.19-7.51l6.64-6.64,6.64,6.64c5.01,5.01,11.6,7.51,18.19,7.51s13.18-2.5,18.19-7.51l16.98-16.98-10.31-10.31Zm-62.34-6.69c-.38-6.07-5.31-11-11.38-11.38-7.36-.47-13.43,5.6-12.97,12.97.38,6.07,5.31,11,11.38,11.38,7.36.46,13.43-5.61,12.97-12.97Z"/>
      <path class="cls-17" d="m1057,548.23c-.38-6.07-5.31-11-11.38-11.38-7.36-.47-13.43,5.6-12.97,12.97.38,6.07,5.31,11,11.38,11.38,7.36.46,13.43-5.61,12.96-12.97Zm12.69,6.69l-16.99,16.99c-2.16,2.16-5.01,3.24-7.88,3.24s-5.72-1.08-7.88-3.24l-6.64-6.64c-2.85-2.85-6.58-4.27-10.31-4.27s-7.46,1.42-10.31,4.27h0l-6.64,6.64c-2.16,2.16-5.02,3.24-7.88,3.24s-5.72-1.08-7.88-3.24l-16.98-16.99-10.31,10.31,16.98,16.98c5.01,5.01,11.6,7.51,18.19,7.51s13.18-2.5,18.19-7.51l6.64-6.64,6.64,6.64c5.01,5.01,11.6,7.51,18.19,7.51s13.18-2.5,18.19-7.51l16.98-16.98-10.31-10.31Zm-62.34-6.69c-.38-6.07-5.31-11-11.38-11.38-7.36-.47-13.43,5.6-12.97,12.97.38,6.07,5.31,11,11.38,11.38,7.36.46,13.43-5.61,12.97-12.97Z"/>
    </g>
    <g>
      <path class="cls-35" d="m97,613.27c-.38-6.07-5.31-11-11.38-11.38-7.36-.47-13.43,5.6-12.97,12.97.38,6.07,5.31,11,11.38,11.38,7.36.46,13.43-5.61,12.96-12.97Zm12.69,6.69l-16.99,16.99c-2.16,2.16-5.01,3.24-7.88,3.24s-5.72-1.08-7.88-3.24l-6.64-6.64c-2.85-2.85-6.58-4.27-10.31-4.27s-7.46,1.42-10.31,4.27h0l-6.64,6.64c-2.16,2.16-5.02,3.24-7.88,3.24s-5.72-1.08-7.88-3.24l-16.98-16.99-10.31,10.31,16.98,16.98c5.01,5.01,11.6,7.51,18.19,7.51s13.18-2.5,18.19-7.51l6.64-6.64,6.64,6.64c5.01,5.01,11.6,7.51,18.19,7.51s13.18-2.5,18.19-7.51l16.98-16.98-10.31-10.31Zm-62.34-6.69c-.38-6.07-5.31-11-11.38-11.38-7.36-.47-13.43,5.6-12.97,12.97.38,6.07,5.31,11,11.38,11.38,7.36.46,13.43-5.61,12.97-12.97Z"/>
      <path class="cls-67" d="m217,613.27c-.38-6.07-5.31-11-11.38-11.38-7.36-.47-13.43,5.6-12.97,12.97.38,6.07,5.31,11,11.38,11.38,7.36.46,13.43-5.61,12.96-12.97Zm12.69,6.69l-16.99,16.99c-2.16,2.16-5.01,3.24-7.88,3.24s-5.72-1.08-7.88-3.24l-6.64-6.64c-2.85-2.85-6.58-4.27-10.31-4.27s-7.46,1.42-10.31,4.27h0l-6.64,6.64c-2.16,2.16-5.02,3.24-7.88,3.24s-5.72-1.08-7.88-3.24l-16.98-16.99-10.31,10.31,16.98,16.98c5.01,5.01,11.6,7.51,18.19,7.51s13.18-2.5,18.19-7.51l6.64-6.64,6.64,6.64c5.01,5.01,11.6,7.51,18.19,7.51s13.18-2.5,18.19-7.51l16.98-16.98-10.31-10.31Zm-62.34-6.69c-.38-6.07-5.31-11-11.38-11.38-7.36-.47-13.43,5.6-12.97,12.97.38,6.07,5.31,11,11.38,11.38,7.36.46,13.43-5.61,12.97-12.97Z"/>
      <path class="cls-31" d="m337,613.27c-.38-6.07-5.31-11-11.38-11.38-7.36-.47-13.43,5.6-12.97,12.97.38,6.07,5.31,11,11.38,11.38,7.36.46,13.43-5.61,12.96-12.97Zm12.69,6.69l-16.99,16.99c-2.16,2.16-5.01,3.24-7.88,3.24s-5.72-1.08-7.88-3.24l-6.64-6.64c-2.85-2.85-6.58-4.27-10.31-4.27s-7.46,1.42-10.31,4.27h0l-6.64,6.64c-2.16,2.16-5.02,3.24-7.88,3.24s-5.72-1.08-7.88-3.24l-16.98-16.99-10.31,10.31,16.98,16.98c5.01,5.01,11.6,7.51,18.19,7.51s13.18-2.5,18.19-7.51l6.64-6.64,6.64,6.64c5.01,5.01,11.6,7.51,18.19,7.51s13.18-2.5,18.19-7.51l16.98-16.98-10.31-10.31Zm-62.34-6.69c-.38-6.07-5.31-11-11.38-11.38-7.36-.47-13.43,5.6-12.97,12.97.38,6.07,5.31,11,11.38,11.38,7.36.46,13.43-5.61,12.97-12.97Z"/>
      <path class="cls-13" d="m457,613.27c-.38-6.07-5.31-11-11.38-11.38-7.36-.47-13.43,5.6-12.97,12.97.38,6.07,5.31,11,11.38,11.38,7.36.46,13.43-5.61,12.96-12.97Zm12.69,6.69l-16.99,16.99c-2.16,2.16-5.01,3.24-7.88,3.24s-5.72-1.08-7.88-3.24l-6.64-6.64c-2.85-2.85-6.58-4.27-10.31-4.27s-7.46,1.42-10.31,4.27h0l-6.64,6.64c-2.16,2.16-5.02,3.24-7.88,3.24s-5.72-1.08-7.88-3.24l-16.98-16.99-10.31,10.31,16.98,16.98c5.01,5.01,11.6,7.51,18.19,7.51s13.18-2.5,18.19-7.51l6.64-6.64,6.64,6.64c5.01,5.01,11.6,7.51,18.19,7.51s13.18-2.5,18.19-7.51l16.98-16.98-10.31-10.31Zm-62.34-6.69c-.38-6.07-5.31-11-11.38-11.38-7.36-.47-13.43,5.6-12.97,12.97.38,6.07,5.31,11,11.38,11.38,7.36.46,13.43-5.61,12.97-12.97Z"/>
      <path class="cls-41" d="m577,613.27c-.38-6.07-5.31-11-11.38-11.38-7.36-.47-13.43,5.6-12.97,12.97.38,6.07,5.31,11,11.38,11.38,7.36.46,13.43-5.61,12.96-12.97Zm12.69,6.69l-16.99,16.99c-2.16,2.16-5.01,3.24-7.88,3.24s-5.72-1.08-7.88-3.24l-6.64-6.64c-2.85-2.85-6.58-4.27-10.31-4.27s-7.46,1.42-10.31,4.27h0l-6.64,6.64c-2.16,2.16-5.02,3.24-7.88,3.24s-5.72-1.08-7.88-3.24l-16.98-16.99-10.31,10.31,16.98,16.98c5.01,5.01,11.6,7.51,18.19,7.51s13.18-2.5,18.19-7.51l6.64-6.64,6.64,6.64c5.01,5.01,11.6,7.51,18.19,7.51s13.18-2.5,18.19-7.51l16.98-16.98-10.31-10.31Zm-62.34-6.69c-.38-6.07-5.31-11-11.38-11.38-7.36-.47-13.43,5.6-12.97,12.97.38,6.07,5.31,11,11.38,11.38,7.36.46,13.43-5.61,12.97-12.97Z"/>
      <path class="cls-62" d="m697,613.27c-.38-6.07-5.31-11-11.38-11.38-7.36-.47-13.43,5.6-12.97,12.97.38,6.07,5.31,11,11.38,11.38,7.36.46,13.43-5.61,12.96-12.97Zm12.69,6.69l-16.99,16.99c-2.16,2.16-5.01,3.24-7.88,3.24s-5.72-1.08-7.88-3.24l-6.64-6.64c-2.85-2.85-6.58-4.27-10.31-4.27s-7.46,1.42-10.31,4.27h0l-6.64,6.64c-2.16,2.16-5.02,3.24-7.88,3.24s-5.72-1.08-7.88-3.24l-16.98-16.99-10.31,10.31,16.98,16.98c5.01,5.01,11.6,7.51,18.19,7.51s13.18-2.5,18.19-7.51l6.64-6.64,6.64,6.64c5.01,5.01,11.6,7.51,18.19,7.51s13.18-2.5,18.19-7.51l16.98-16.98-10.31-10.31Zm-62.34-6.69c-.38-6.07-5.31-11-11.38-11.38-7.36-.47-13.43,5.6-12.97,12.97.38,6.07,5.31,11,11.38,11.38,7.36.46,13.43-5.61,12.97-12.97Z"/>
      <path class="cls-6" d="m817,613.27c-.38-6.07-5.31-11-11.38-11.38-7.36-.47-13.43,5.6-12.97,12.97.38,6.07,5.31,11,11.38,11.38,7.36.46,13.43-5.61,12.96-12.97Zm12.69,6.69l-16.99,16.99c-2.16,2.16-5.01,3.24-7.88,3.24s-5.72-1.08-7.88-3.24l-6.64-6.64c-2.85-2.85-6.58-4.27-10.31-4.27s-7.46,1.42-10.31,4.27h0l-6.64,6.64c-2.16,2.16-5.02,3.24-7.88,3.24s-5.72-1.08-7.88-3.24l-16.98-16.99-10.31,10.31,16.98,16.98c5.01,5.01,11.6,7.51,18.19,7.51s13.18-2.5,18.19-7.51l6.64-6.64,6.64,6.64c5.01,5.01,11.6,7.51,18.19,7.51s13.18-2.5,18.19-7.51l16.98-16.98-10.31-10.31Zm-62.34-6.69c-.38-6.07-5.31-11-11.38-11.38-7.36-.47-13.43,5.6-12.97,12.97.38,6.07,5.31,11,11.38,11.38,7.36.46,13.43-5.61,12.97-12.97Z"/>
      <path class="cls-76" d="m937,613.27c-.38-6.07-5.31-11-11.38-11.38-7.36-.47-13.43,5.6-12.97,12.97.38,6.07,5.31,11,11.38,11.38,7.36.46,13.43-5.61,12.96-12.97Zm12.69,6.69l-16.99,16.99c-2.16,2.16-5.01,3.24-7.88,3.24s-5.72-1.08-7.88-3.24l-6.64-6.64c-2.85-2.85-6.58-4.27-10.31-4.27s-7.46,1.42-10.31,4.27h0l-6.64,6.64c-2.16,2.16-5.02,3.24-7.88,3.24s-5.72-1.08-7.88-3.24l-16.98-16.99-10.31,10.31,16.98,16.98c5.01,5.01,11.6,7.51,18.19,7.51s13.18-2.5,18.19-7.51l6.64-6.64,6.64,6.64c5.01,5.01,11.6,7.51,18.19,7.51s13.18-2.5,18.19-7.51l16.98-16.98-10.31-10.31Zm-62.34-6.69c-.38-6.07-5.31-11-11.38-11.38-7.36-.47-13.43,5.6-12.97,12.97.38,6.07,5.31,11,11.38,11.38,7.36.46,13.43-5.61,12.97-12.97Z"/>
      <path class="cls-49" d="m1057,613.27c-.38-6.07-5.31-11-11.38-11.38-7.36-.47-13.43,5.6-12.97,12.97.38,6.07,5.31,11,11.38,11.38,7.36.46,13.43-5.61,12.96-12.97Zm12.69,6.69l-16.99,16.99c-2.16,2.16-5.01,3.24-7.88,3.24s-5.72-1.08-7.88-3.24l-6.64-6.64c-2.85-2.85-6.58-4.27-10.31-4.27s-7.46,1.42-10.31,4.27h0l-6.64,6.64c-2.16,2.16-5.02,3.24-7.88,3.24s-5.72-1.08-7.88-3.24l-16.98-16.99-10.31,10.31,16.98,16.98c5.01,5.01,11.6,7.51,18.19,7.51s13.18-2.5,18.19-7.51l6.64-6.64,6.64,6.64c5.01,5.01,11.6,7.51,18.19,7.51s13.18-2.5,18.19-7.51l16.98-16.98-10.31-10.31Zm-62.34-6.69c-.38-6.07-5.31-11-11.38-11.38-7.36-.47-13.43,5.6-12.97,12.97.38,6.07,5.31,11,11.38,11.38,7.36.46,13.43-5.61,12.97-12.97Z"/>
    </g>
    <g>
      <path class="cls-79" d="m97,678.31c-.38-6.07-5.31-11-11.38-11.38-7.36-.47-13.43,5.6-12.97,12.97.38,6.07,5.31,11,11.38,11.38,7.36.46,13.43-5.61,12.96-12.97Zm12.69,6.69l-16.99,16.99c-2.16,2.16-5.01,3.24-7.88,3.24s-5.72-1.08-7.88-3.24l-6.64-6.64c-2.85-2.85-6.58-4.27-10.31-4.27s-7.46,1.42-10.31,4.27h0l-6.64,6.64c-2.16,2.16-5.02,3.24-7.88,3.24s-5.72-1.08-7.88-3.24l-16.98-16.99-10.31,10.31,16.98,16.98c5.01,5.01,11.6,7.51,18.19,7.51s13.18-2.5,18.19-7.51l6.64-6.64,6.64,6.64c5.01,5.01,11.6,7.51,18.19,7.51s13.18-2.5,18.19-7.51l16.98-16.98-10.31-10.31Zm-62.34-6.69c-.38-6.07-5.31-11-11.38-11.38-7.36-.47-13.43,5.6-12.97,12.97.38,6.07,5.31,11,11.38,11.38,7.36.46,13.43-5.61,12.97-12.97Z"/>
      <path class="cls-78" d="m217,678.31c-.38-6.07-5.31-11-11.38-11.38-7.36-.47-13.43,5.6-12.97,12.97.38,6.07,5.31,11,11.38,11.38,7.36.46,13.43-5.61,12.96-12.97Zm12.69,6.69l-16.99,16.99c-2.16,2.16-5.01,3.24-7.88,3.24s-5.72-1.08-7.88-3.24l-6.64-6.64c-2.85-2.85-6.58-4.27-10.31-4.27s-7.46,1.42-10.31,4.27h0l-6.64,6.64c-2.16,2.16-5.02,3.24-7.88,3.24s-5.72-1.08-7.88-3.24l-16.98-16.99-10.31,10.31,16.98,16.98c5.01,5.01,11.6,7.51,18.19,7.51s13.18-2.5,18.19-7.51l6.64-6.64,6.64,6.64c5.01,5.01,11.6,7.51,18.19,7.51s13.18-2.5,18.19-7.51l16.98-16.98-10.31-10.31Zm-62.34-6.69c-.38-6.07-5.31-11-11.38-11.38-7.36-.47-13.43,5.6-12.97,12.97.38,6.07,5.31,11,11.38,11.38,7.36.46,13.43-5.61,12.97-12.97Z"/>
      <path class="cls-25" d="m337,678.31c-.38-6.07-5.31-11-11.38-11.38-7.36-.47-13.43,5.6-12.97,12.97.38,6.07,5.31,11,11.38,11.38,7.36.46,13.43-5.61,12.96-12.97Zm12.69,6.69l-16.99,16.99c-2.16,2.16-5.01,3.24-7.88,3.24s-5.72-1.08-7.88-3.24l-6.64-6.64c-2.85-2.85-6.58-4.27-10.31-4.27s-7.46,1.42-10.31,4.27h0l-6.64,6.64c-2.16,2.16-5.02,3.24-7.88,3.24s-5.72-1.08-7.88-3.24l-16.98-16.99-10.31,10.31,16.98,16.98c5.01,5.01,11.6,7.51,18.19,7.51s13.18-2.5,18.19-7.51l6.64-6.64,6.64,6.64c5.01,5.01,11.6,7.51,18.19,7.51s13.18-2.5,18.19-7.51l16.98-16.98-10.31-10.31Zm-62.34-6.69c-.38-6.07-5.31-11-11.38-11.38-7.36-.47-13.43,5.6-12.97,12.97.38,6.07,5.31,11,11.38,11.38,7.36.46,13.43-5.61,12.97-12.97Z"/>
      <path class="cls-34" d="m457,678.31c-.38-6.07-5.31-11-11.38-11.38-7.36-.47-13.43,5.6-12.97,12.97.38,6.07,5.31,11,11.38,11.38,7.36.46,13.43-5.61,12.96-12.97Zm12.69,6.69l-16.99,16.99c-2.16,2.16-5.01,3.24-7.88,3.24s-5.72-1.08-7.88-3.24l-6.64-6.64c-2.85-2.85-6.58-4.27-10.31-4.27s-7.46,1.42-10.31,4.27h0l-6.64,6.64c-2.16,2.16-5.02,3.24-7.88,3.24s-5.72-1.08-7.88-3.24l-16.98-16.99-10.31,10.31,16.98,16.98c5.01,5.01,11.6,7.51,18.19,7.51s13.18-2.5,18.19-7.51l6.64-6.64,6.64,6.64c5.01,5.01,11.6,7.51,18.19,7.51s13.18-2.5,18.19-7.51l16.98-16.98-10.31-10.31Zm-62.34-6.69c-.38-6.07-5.31-11-11.38-11.38-7.36-.47-13.43,5.6-12.97,12.97.38,6.07,5.31,11,11.38,11.38,7.36.46,13.43-5.61,12.97-12.97Z"/>
      <path class="cls-28" d="m577,678.31c-.38-6.07-5.31-11-11.38-11.38-7.36-.47-13.43,5.6-12.97,12.97.38,6.07,5.31,11,11.38,11.38,7.36.46,13.43-5.61,12.96-12.97Zm12.69,6.69l-16.99,16.99c-2.16,2.16-5.01,3.24-7.88,3.24s-5.72-1.08-7.88-3.24l-6.64-6.64c-2.85-2.85-6.58-4.27-10.31-4.27s-7.46,1.42-10.31,4.27h0l-6.64,6.64c-2.16,2.16-5.02,3.24-7.88,3.24s-5.72-1.08-7.88-3.24l-16.98-16.99-10.31,10.31,16.98,16.98c5.01,5.01,11.6,7.51,18.19,7.51s13.18-2.5,18.19-7.51l6.64-6.64,6.64,6.64c5.01,5.01,11.6,7.51,18.19,7.51s13.18-2.5,18.19-7.51l16.98-16.98-10.31-10.31Zm-62.34-6.69c-.38-6.07-5.31-11-11.38-11.38-7.36-.47-13.43,5.6-12.97,12.97.38,6.07,5.31,11,11.38,11.38,7.36.46,13.43-5.61,12.97-12.97Z"/>
      <path class="cls-3" d="m697,678.31c-.38-6.07-5.31-11-11.38-11.38-7.36-.47-13.43,5.6-12.97,12.97.38,6.07,5.31,11,11.38,11.38,7.36.46,13.43-5.61,12.96-12.97Zm12.69,6.69l-16.99,16.99c-2.16,2.16-5.01,3.24-7.88,3.24s-5.72-1.08-7.88-3.24l-6.64-6.64c-2.85-2.85-6.58-4.27-10.31-4.27s-7.46,1.42-10.31,4.27h0l-6.64,6.64c-2.16,2.16-5.02,3.24-7.88,3.24s-5.72-1.08-7.88-3.24l-16.98-16.99-10.31,10.31,16.98,16.98c5.01,5.01,11.6,7.51,18.19,7.51s13.18-2.5,18.19-7.51l6.64-6.64,6.64,6.64c5.01,5.01,11.6,7.51,18.19,7.51s13.18-2.5,18.19-7.51l16.98-16.98-10.31-10.31Zm-62.34-6.69c-.38-6.07-5.31-11-11.38-11.38-7.36-.47-13.43,5.6-12.97,12.97.38,6.07,5.31,11,11.38,11.38,7.36.46,13.43-5.61,12.97-12.97Z"/>
      <path class="cls-14" d="m817,678.31c-.38-6.07-5.31-11-11.38-11.38-7.36-.47-13.43,5.6-12.97,12.97.38,6.07,5.31,11,11.38,11.38,7.36.46,13.43-5.61,12.96-12.97Zm12.69,6.69l-16.99,16.99c-2.16,2.16-5.01,3.24-7.88,3.24s-5.72-1.08-7.88-3.24l-6.64-6.64c-2.85-2.85-6.58-4.27-10.31-4.27s-7.46,1.42-10.31,4.27h0l-6.64,6.64c-2.16,2.16-5.02,3.24-7.88,3.24s-5.72-1.08-7.88-3.24l-16.98-16.99-10.31,10.31,16.98,16.98c5.01,5.01,11.6,7.51,18.19,7.51s13.18-2.5,18.19-7.51l6.64-6.64,6.64,6.64c5.01,5.01,11.6,7.51,18.19,7.51s13.18-2.5,18.19-7.51l16.98-16.98-10.31-10.31Zm-62.34-6.69c-.38-6.07-5.31-11-11.38-11.38-7.36-.47-13.43,5.6-12.97,12.97.38,6.07,5.31,11,11.38,11.38,7.36.46,13.43-5.61,12.97-12.97Z"/>
      <path class="cls-22" d="m937,678.31c-.38-6.07-5.31-11-11.38-11.38-7.36-.47-13.43,5.6-12.97,12.97.38,6.07,5.31,11,11.38,11.38,7.36.46,13.43-5.61,12.96-12.97Zm12.69,6.69l-16.99,16.99c-2.16,2.16-5.01,3.24-7.88,3.24s-5.72-1.08-7.88-3.24l-6.64-6.64c-2.85-2.85-6.58-4.27-10.31-4.27s-7.46,1.42-10.31,4.27h0l-6.64,6.64c-2.16,2.16-5.02,3.24-7.88,3.24s-5.72-1.08-7.88-3.24l-16.98-16.99-10.31,10.31,16.98,16.98c5.01,5.01,11.6,7.51,18.19,7.51s13.18-2.5,18.19-7.51l6.64-6.64,6.64,6.64c5.01,5.01,11.6,7.51,18.19,7.51s13.18-2.5,18.19-7.51l16.98-16.98-10.31-10.31Zm-62.34-6.69c-.38-6.07-5.31-11-11.38-11.38-7.36-.47-13.43,5.6-12.97,12.97.38,6.07,5.31,11,11.38,11.38,7.36.46,13.43-5.61,12.97-12.97Z"/>
      <path class="cls-48" d="m1057,678.31c-.38-6.07-5.31-11-11.38-11.38-7.36-.47-13.43,5.6-12.97,12.97.38,6.07,5.31,11,11.38,11.38,7.36.46,13.43-5.61,12.96-12.97Zm12.69,6.69l-16.99,16.99c-2.16,2.16-5.01,3.24-7.88,3.24s-5.72-1.08-7.88-3.24l-6.64-6.64c-2.85-2.85-6.58-4.27-10.31-4.27s-7.46,1.42-10.31,4.27h0l-6.64,6.64c-2.16,2.16-5.02,3.24-7.88,3.24s-5.72-1.08-7.88-3.24l-16.98-16.99-10.31,10.31,16.98,16.98c5.01,5.01,11.6,7.51,18.19,7.51s13.18-2.5,18.19-7.51l6.64-6.64,6.64,6.64c5.01,5.01,11.6,7.51,18.19,7.51s13.18-2.5,18.19-7.51l16.98-16.98-10.31-10.31Zm-62.34-6.69c-.38-6.07-5.31-11-11.38-11.38-7.36-.47-13.43,5.6-12.97,12.97.38,6.07,5.31,11,11.38,11.38,7.36.46,13.43-5.61,12.97-12.97Z"/>
    </g>
    <g>
      <path class="cls-50" d="m97,743.35c-.38-6.07-5.31-11-11.38-11.38-7.36-.47-13.43,5.6-12.97,12.97.38,6.07,5.31,11,11.38,11.38,7.36.46,13.43-5.61,12.96-12.97Zm12.69,6.69l-16.99,16.99c-2.16,2.16-5.01,3.24-7.88,3.24s-5.72-1.08-7.88-3.24l-6.64-6.64c-2.85-2.85-6.58-4.27-10.31-4.27s-7.46,1.42-10.31,4.27h0l-6.64,6.64c-2.16,2.16-5.02,3.24-7.88,3.24s-5.72-1.08-7.88-3.24l-16.98-16.99-10.31,10.31,16.98,16.98c5.01,5.01,11.6,7.51,18.19,7.51s13.18-2.5,18.19-7.51l6.64-6.64,6.64,6.64c5.01,5.01,11.6,7.51,18.19,7.51s13.18-2.5,18.19-7.51l16.98-16.98-10.31-10.31Zm-62.34-6.69c-.38-6.07-5.31-11-11.38-11.38-7.36-.47-13.43,5.6-12.97,12.97.38,6.07,5.31,11,11.38,11.38,7.36.46,13.43-5.61,12.97-12.97Z"/>
      <path class="cls-12" d="m217,743.35c-.38-6.07-5.31-11-11.38-11.38-7.36-.47-13.43,5.6-12.97,12.97.38,6.07,5.31,11,11.38,11.38,7.36.46,13.43-5.61,12.96-12.97Zm12.69,6.69l-16.99,16.99c-2.16,2.16-5.01,3.24-7.88,3.24s-5.72-1.08-7.88-3.24l-6.64-6.64c-2.85-2.85-6.58-4.27-10.31-4.27s-7.46,1.42-10.31,4.27h0l-6.64,6.64c-2.16,2.16-5.02,3.24-7.88,3.24s-5.72-1.08-7.88-3.24l-16.98-16.99-10.31,10.31,16.98,16.98c5.01,5.01,11.6,7.51,18.19,7.51s13.18-2.5,18.19-7.51l6.64-6.64,6.64,6.64c5.01,5.01,11.6,7.51,18.19,7.51s13.18-2.5,18.19-7.51l16.98-16.98-10.31-10.31Zm-62.34-6.69c-.38-6.07-5.31-11-11.38-11.38-7.36-.47-13.43,5.6-12.97,12.97.38,6.07,5.31,11,11.38,11.38,7.36.46,13.43-5.61,12.97-12.97Z"/>
      <path class="cls-77" d="m337,743.35c-.38-6.07-5.31-11-11.38-11.38-7.36-.47-13.43,5.6-12.97,12.97.38,6.07,5.31,11,11.38,11.38,7.36.46,13.43-5.61,12.96-12.97Zm12.69,6.69l-16.99,16.99c-2.16,2.16-5.01,3.24-7.88,3.24s-5.72-1.08-7.88-3.24l-6.64-6.64c-2.85-2.85-6.58-4.27-10.31-4.27s-7.46,1.42-10.31,4.27h0l-6.64,6.64c-2.16,2.16-5.02,3.24-7.88,3.24s-5.72-1.08-7.88-3.24l-16.98-16.99-10.31,10.31,16.98,16.98c5.01,5.01,11.6,7.51,18.19,7.51s13.18-2.5,18.19-7.51l6.64-6.64,6.64,6.64c5.01,5.01,11.6,7.51,18.19,7.51s13.18-2.5,18.19-7.51l16.98-16.98-10.31-10.31Zm-62.34-6.69c-.38-6.07-5.31-11-11.38-11.38-7.36-.47-13.43,5.6-12.97,12.97.38,6.07,5.31,11,11.38,11.38,7.36.46,13.43-5.61,12.97-12.97Z"/>
      <path class="cls-8" d="m457,743.35c-.38-6.07-5.31-11-11.38-11.38-7.36-.47-13.43,5.6-12.97,12.97.38,6.07,5.31,11,11.38,11.38,7.36.46,13.43-5.61,12.96-12.97Zm12.69,6.69l-16.99,16.99c-2.16,2.16-5.01,3.24-7.88,3.24s-5.72-1.08-7.88-3.24l-6.64-6.64c-2.85-2.85-6.58-4.27-10.31-4.27s-7.46,1.42-10.31,4.27h0l-6.64,6.64c-2.16,2.16-5.02,3.24-7.88,3.24s-5.72-1.08-7.88-3.24l-16.98-16.99-10.31,10.31,16.98,16.98c5.01,5.01,11.6,7.51,18.19,7.51s13.18-2.5,18.19-7.51l6.64-6.64,6.64,6.64c5.01,5.01,11.6,7.51,18.19,7.51s13.18-2.5,18.19-7.51l16.98-16.98-10.31-10.31Zm-62.34-6.69c-.38-6.07-5.31-11-11.38-11.38-7.36-.47-13.43,5.6-12.97,12.97.38,6.07,5.31,11,11.38,11.38,7.36.46,13.43-5.61,12.97-12.97Z"/>
      <path class="cls-33" d="m577,743.35c-.38-6.07-5.31-11-11.38-11.38-7.36-.47-13.43,5.6-12.97,12.97.38,6.07,5.31,11,11.38,11.38,7.36.46,13.43-5.61,12.96-12.97Zm12.69,6.69l-16.99,16.99c-2.16,2.16-5.01,3.24-7.88,3.24s-5.72-1.08-7.88-3.24l-6.64-6.64c-2.85-2.85-6.58-4.27-10.31-4.27s-7.46,1.42-10.31,4.27h0l-6.64,6.64c-2.16,2.16-5.02,3.24-7.88,3.24s-5.72-1.08-7.88-3.24l-16.98-16.99-10.31,10.31,16.98,16.98c5.01,5.01,11.6,7.51,18.19,7.51s13.18-2.5,18.19-7.51l6.64-6.64,6.64,6.64c5.01,5.01,11.6,7.51,18.19,7.51s13.18-2.5,18.19-7.51l16.98-16.98-10.31-10.31Zm-62.34-6.69c-.38-6.07-5.31-11-11.38-11.38-7.36-.47-13.43,5.6-12.97,12.97.38,6.07,5.31,11,11.38,11.38,7.36.46,13.43-5.61,12.97-12.97Z"/>
      <path class="cls-23" d="m697,743.35c-.38-6.07-5.31-11-11.38-11.38-7.36-.47-13.43,5.6-12.97,12.97.38,6.07,5.31,11,11.38,11.38,7.36.46,13.43-5.61,12.96-12.97Zm12.69,6.69l-16.99,16.99c-2.16,2.16-5.01,3.24-7.88,3.24s-5.72-1.08-7.88-3.24l-6.64-6.64c-2.85-2.85-6.58-4.27-10.31-4.27s-7.46,1.42-10.31,4.27h0l-6.64,6.64c-2.16,2.16-5.02,3.24-7.88,3.24s-5.72-1.08-7.88-3.24l-16.98-16.99-10.31,10.31,16.98,16.98c5.01,5.01,11.6,7.51,18.19,7.51s13.18-2.5,18.19-7.51l6.64-6.64,6.64,6.64c5.01,5.01,11.6,7.51,18.19,7.51s13.18-2.5,18.19-7.51l16.98-16.98-10.31-10.31Zm-62.34-6.69c-.38-6.07-5.31-11-11.38-11.38-7.36-.47-13.43,5.6-12.97,12.97.38,6.07,5.31,11,11.38,11.38,7.36.46,13.43-5.61,12.97-12.97Z"/>
      <path class="cls-38" d="m817,743.35c-.38-6.07-5.31-11-11.38-11.38-7.36-.47-13.43,5.6-12.97,12.97.38,6.07,5.31,11,11.38,11.38,7.36.46,13.43-5.61,12.96-12.97Zm12.69,6.69l-16.99,16.99c-2.16,2.16-5.01,3.24-7.88,3.24s-5.72-1.08-7.88-3.24l-6.64-6.64c-2.85-2.85-6.58-4.27-10.31-4.27s-7.46,1.42-10.31,4.27h0l-6.64,6.64c-2.16,2.16-5.02,3.24-7.88,3.24s-5.72-1.08-7.88-3.24l-16.98-16.99-10.31,10.31,16.98,16.98c5.01,5.01,11.6,7.51,18.19,7.51s13.18-2.5,18.19-7.51l6.64-6.64,6.64,6.64c5.01,5.01,11.6,7.51,18.19,7.51s13.18-2.5,18.19-7.51l16.98-16.98-10.31-10.31Zm-62.34-6.69c-.38-6.07-5.31-11-11.38-11.38-7.36-.47-13.43,5.6-12.97,12.97.38,6.07,5.31,11,11.38,11.38,7.36.46,13.43-5.61,12.97-12.97Z"/>
      <path class="cls-40" d="m937,743.35c-.38-6.07-5.31-11-11.38-11.38-7.36-.47-13.43,5.6-12.97,12.97.38,6.07,5.31,11,11.38,11.38,7.36.46,13.43-5.61,12.96-12.97Zm12.69,6.69l-16.99,16.99c-2.16,2.16-5.01,3.24-7.88,3.24s-5.72-1.08-7.88-3.24l-6.64-6.64c-2.85-2.85-6.58-4.27-10.31-4.27s-7.46,1.42-10.31,4.27h0l-6.64,6.64c-2.16,2.16-5.02,3.24-7.88,3.24s-5.72-1.08-7.88-3.24l-16.98-16.99-10.31,10.31,16.98,16.98c5.01,5.01,11.6,7.51,18.19,7.51s13.18-2.5,18.19-7.51l6.64-6.64,6.64,6.64c5.01,5.01,11.6,7.51,18.19,7.51s13.18-2.5,18.19-7.51l16.98-16.98-10.31-10.31Zm-62.34-6.69c-.38-6.07-5.31-11-11.38-11.38-7.36-.47-13.43,5.6-12.97,12.97.38,6.07,5.31,11,11.38,11.38,7.36.46,13.43-5.61,12.97-12.97Z"/>
      <path class="cls-29" d="m1057,743.35c-.38-6.07-5.31-11-11.38-11.38-7.36-.47-13.43,5.6-12.97,12.97.38,6.07,5.31,11,11.38,11.38,7.36.46,13.43-5.61,12.96-12.97Zm12.69,6.69l-16.99,16.99c-2.16,2.16-5.01,3.24-7.88,3.24s-5.72-1.08-7.88-3.24l-6.64-6.64c-2.85-2.85-6.58-4.27-10.31-4.27s-7.46,1.42-10.31,4.27h0l-6.64,6.64c-2.16,2.16-5.02,3.24-7.88,3.24s-5.72-1.08-7.88-3.24l-16.98-16.99-10.31,10.31,16.98,16.98c5.01,5.01,11.6,7.51,18.19,7.51s13.18-2.5,18.19-7.51l6.64-6.64,6.64,6.64c5.01,5.01,11.6,7.51,18.19,7.51s13.18-2.5,18.19-7.51l16.98-16.98-10.31-10.31Zm-62.34-6.69c-.38-6.07-5.31-11-11.38-11.38-7.36-.47-13.43,5.6-12.97,12.97.38,6.07,5.31,11,11.38,11.38,7.36.46,13.43-5.61,12.97-12.97Z"/>
    </g>
    <g>
      <path class="cls-47" d="m97,808.39c-.38-6.07-5.31-11-11.38-11.38-7.36-.47-13.43,5.6-12.97,12.97.38,6.07,5.31,11,11.38,11.38,7.36.46,13.43-5.61,12.96-12.97Zm12.69,6.69l-16.99,16.99c-2.16,2.16-5.01,3.24-7.88,3.24s-5.72-1.08-7.88-3.24l-6.64-6.64c-2.85-2.85-6.58-4.27-10.31-4.27s-7.46,1.42-10.31,4.27h0l-6.64,6.64c-2.16,2.16-5.02,3.24-7.88,3.24s-5.72-1.08-7.88-3.24l-16.98-16.99-10.31,10.31,16.98,16.98c5.01,5.01,11.6,7.51,18.19,7.51s13.18-2.5,18.19-7.51l6.64-6.64,6.64,6.64c5.01,5.01,11.6,7.51,18.19,7.51s13.18-2.5,18.19-7.51l16.98-16.98-10.31-10.31Zm-62.34-6.69c-.38-6.07-5.31-11-11.38-11.38-7.36-.47-13.43,5.6-12.97,12.97.38,6.07,5.31,11,11.38,11.38,7.36.46,13.43-5.61,12.97-12.97Z"/>
      <path class="cls-52" d="m217,808.39c-.38-6.07-5.31-11-11.38-11.38-7.36-.47-13.43,5.6-12.97,12.97.38,6.07,5.31,11,11.38,11.38,7.36.46,13.43-5.61,12.96-12.97Zm12.69,6.69l-16.99,16.99c-2.16,2.16-5.01,3.24-7.88,3.24s-5.72-1.08-7.88-3.24l-6.64-6.64c-2.85-2.85-6.58-4.27-10.31-4.27s-7.46,1.42-10.31,4.27h0l-6.64,6.64c-2.16,2.16-5.02,3.24-7.88,3.24s-5.72-1.08-7.88-3.24l-16.98-16.99-10.31,10.31,16.98,16.98c5.01,5.01,11.6,7.51,18.19,7.51s13.18-2.5,18.19-7.51l6.64-6.64,6.64,6.64c5.01,5.01,11.6,7.51,18.19,7.51s13.18-2.5,18.19-7.51l16.98-16.98-10.31-10.31Zm-62.34-6.69c-.38-6.07-5.31-11-11.38-11.38-7.36-.47-13.43,5.6-12.97,12.97.38,6.07,5.31,11,11.38,11.38,7.36.46,13.43-5.61,12.97-12.97Z"/>
      <path class="cls-56" d="m337,808.39c-.38-6.07-5.31-11-11.38-11.38-7.36-.47-13.43,5.6-12.97,12.97.38,6.07,5.31,11,11.38,11.38,7.36.46,13.43-5.61,12.96-12.97Zm12.69,6.69l-16.99,16.99c-2.16,2.16-5.01,3.24-7.88,3.24s-5.72-1.08-7.88-3.24l-6.64-6.64c-2.85-2.85-6.58-4.27-10.31-4.27s-7.46,1.42-10.31,4.27h0l-6.64,6.64c-2.16,2.16-5.02,3.24-7.88,3.24s-5.72-1.08-7.88-3.24l-16.98-16.99-10.31,10.31,16.98,16.98c5.01,5.01,11.6,7.51,18.19,7.51s13.18-2.5,18.19-7.51l6.64-6.64,6.64,6.64c5.01,5.01,11.6,7.51,18.19,7.51s13.18-2.5,18.19-7.51l16.98-16.98-10.31-10.31Zm-62.34-6.69c-.38-6.07-5.31-11-11.38-11.38-7.36-.47-13.43,5.6-12.97,12.97.38,6.07,5.31,11,11.38,11.38,7.36.46,13.43-5.61,12.97-12.97Z"/>
      <path class="cls-30" d="m457,808.39c-.38-6.07-5.31-11-11.38-11.38-7.36-.47-13.43,5.6-12.97,12.97.38,6.07,5.31,11,11.38,11.38,7.36.46,13.43-5.61,12.96-12.97Zm12.69,6.69l-16.99,16.99c-2.16,2.16-5.01,3.24-7.88,3.24s-5.72-1.08-7.88-3.24l-6.64-6.64c-2.85-2.85-6.58-4.27-10.31-4.27s-7.46,1.42-10.31,4.27h0l-6.64,6.64c-2.16,2.16-5.02,3.24-7.88,3.24s-5.72-1.08-7.88-3.24l-16.98-16.99-10.31,10.31,16.98,16.98c5.01,5.01,11.6,7.51,18.19,7.51s13.18-2.5,18.19-7.51l6.64-6.64,6.64,6.64c5.01,5.01,11.6,7.51,18.19,7.51s13.18-2.5,18.19-7.51l16.98-16.98-10.31-10.31Zm-62.34-6.69c-.38-6.07-5.31-11-11.38-11.38-7.36-.47-13.43,5.6-12.97,12.97.38,6.07,5.31,11,11.38,11.38,7.36.46,13.43-5.61,12.97-12.97Z"/>
      <path class="cls-39" d="m577,808.39c-.38-6.07-5.31-11-11.38-11.38-7.36-.47-13.43,5.6-12.97,12.97.38,6.07,5.31,11,11.38,11.38,7.36.46,13.43-5.61,12.96-12.97Zm12.69,6.69l-16.99,16.99c-2.16,2.16-5.01,3.24-7.88,3.24s-5.72-1.08-7.88-3.24l-6.64-6.64c-2.85-2.85-6.58-4.27-10.31-4.27s-7.46,1.42-10.31,4.27h0l-6.64,6.64c-2.16,2.16-5.02,3.24-7.88,3.24s-5.72-1.08-7.88-3.24l-16.98-16.99-10.31,10.31,16.98,16.98c5.01,5.01,11.6,7.51,18.19,7.51s13.18-2.5,18.19-7.51l6.64-6.64,6.64,6.64c5.01,5.01,11.6,7.51,18.19,7.51s13.18-2.5,18.19-7.51l16.98-16.98-10.31-10.31Zm-62.34-6.69c-.38-6.07-5.31-11-11.38-11.38-7.36-.47-13.43,5.6-12.97,12.97.38,6.07,5.31,11,11.38,11.38,7.36.46,13.43-5.61,12.97-12.97Z"/>
      <path class="cls-9" d="m697,808.39c-.38-6.07-5.31-11-11.38-11.38-7.36-.47-13.43,5.6-12.97,12.97.38,6.07,5.31,11,11.38,11.38,7.36.46,13.43-5.61,12.96-12.97Zm12.69,6.69l-16.99,16.99c-2.16,2.16-5.01,3.24-7.88,3.24s-5.72-1.08-7.88-3.24l-6.64-6.64c-2.85-2.85-6.58-4.27-10.31-4.27s-7.46,1.42-10.31,4.27h0l-6.64,6.64c-2.16,2.16-5.02,3.24-7.88,3.24s-5.72-1.08-7.88-3.24l-16.98-16.99-10.31,10.31,16.98,16.98c5.01,5.01,11.6,7.51,18.19,7.51s13.18-2.5,18.19-7.51l6.64-6.64,6.64,6.64c5.01,5.01,11.6,7.51,18.19,7.51s13.18-2.5,18.19-7.51l16.98-16.98-10.31-10.31Zm-62.34-6.69c-.38-6.07-5.31-11-11.38-11.38-7.36-.47-13.43,5.6-12.97,12.97.38,6.07,5.31,11,11.38,11.38,7.36.46,13.43-5.61,12.97-12.97Z"/>
      <path class="cls-53" d="m817,808.39c-.38-6.07-5.31-11-11.38-11.38-7.36-.47-13.43,5.6-12.97,12.97.38,6.07,5.31,11,11.38,11.38,7.36.46,13.43-5.61,12.96-12.97Zm12.69,6.69l-16.99,16.99c-2.16,2.16-5.01,3.24-7.88,3.24s-5.72-1.08-7.88-3.24l-6.64-6.64c-2.85-2.85-6.58-4.27-10.31-4.27s-7.46,1.42-10.31,4.27h0l-6.64,6.64c-2.16,2.16-5.02,3.24-7.88,3.24s-5.72-1.08-7.88-3.24l-16.98-16.99-10.31,10.31,16.98,16.98c5.01,5.01,11.6,7.51,18.19,7.51s13.18-2.5,18.19-7.51l6.64-6.64,6.64,6.64c5.01,5.01,11.6,7.51,18.19,7.51s13.18-2.5,18.19-7.51l16.98-16.98-10.31-10.31Zm-62.34-6.69c-.38-6.07-5.31-11-11.38-11.38-7.36-.47-13.43,5.6-12.97,12.97.38,6.07,5.31,11,11.38,11.38,7.36.46,13.43-5.61,12.97-12.97Z"/>
      <path class="cls-72" d="m937,808.39c-.38-6.07-5.31-11-11.38-11.38-7.36-.47-13.43,5.6-12.97,12.97.38,6.07,5.31,11,11.38,11.38,7.36.46,13.43-5.61,12.96-12.97Zm12.69,6.69l-16.99,16.99c-2.16,2.16-5.01,3.24-7.88,3.24s-5.72-1.08-7.88-3.24l-6.64-6.64c-2.85-2.85-6.58-4.27-10.31-4.27s-7.46,1.42-10.31,4.27h0l-6.64,6.64c-2.16,2.16-5.02,3.24-7.88,3.24s-5.72-1.08-7.88-3.24l-16.98-16.99-10.31,10.31,16.98,16.98c5.01,5.01,11.6,7.51,18.19,7.51s13.18-2.5,18.19-7.51l6.64-6.64,6.64,6.64c5.01,5.01,11.6,7.51,18.19,7.51s13.18-2.5,18.19-7.51l16.98-16.98-10.31-10.31Zm-62.34-6.69c-.38-6.07-5.31-11-11.38-11.38-7.36-.47-13.43,5.6-12.97,12.97.38,6.07,5.31,11,11.38,11.38,7.36.46,13.43-5.61,12.97-12.97Z"/>
      <path class="cls-44" d="m1057,808.39c-.38-6.07-5.31-11-11.38-11.38-7.36-.47-13.43,5.6-12.97,12.97.38,6.07,5.31,11,11.38,11.38,7.36.46,13.43-5.61,12.96-12.97Zm12.69,6.69l-16.99,16.99c-2.16,2.16-5.01,3.24-7.88,3.24s-5.72-1.08-7.88-3.24l-6.64-6.64c-2.85-2.85-6.58-4.27-10.31-4.27s-7.46,1.42-10.31,4.27h0l-6.64,6.64c-2.16,2.16-5.02,3.24-7.88,3.24s-5.72-1.08-7.88-3.24l-16.98-16.99-10.31,10.31,16.98,16.98c5.01,5.01,11.6,7.51,18.19,7.51s13.18-2.5,18.19-7.51l6.64-6.64,6.64,6.64c5.01,5.01,11.6,7.51,18.19,7.51s13.18-2.5,18.19-7.51l16.98-16.98-10.31-10.31Zm-62.34-6.69c-.38-6.07-5.31-11-11.38-11.38-7.36-.47-13.43,5.6-12.97,12.97.38,6.07,5.31,11,11.38,11.38,7.36.46,13.43-5.61,12.97-12.97Z"/>
    </g>
    <g>
      <path class="cls-58" d="m97,873.43c-.38-6.07-5.31-11-11.38-11.38-7.36-.47-13.43,5.6-12.97,12.97.38,6.07,5.31,11,11.38,11.38,7.36.46,13.43-5.61,12.96-12.97Zm12.69,6.69l-16.99,16.99c-2.16,2.16-5.01,3.24-7.88,3.24s-5.72-1.08-7.88-3.24l-6.64-6.64c-2.85-2.85-6.58-4.27-10.31-4.27s-7.46,1.42-10.31,4.27h0l-6.64,6.64c-2.16,2.16-5.02,3.24-7.88,3.24s-5.72-1.08-7.88-3.24l-16.98-16.99-10.31,10.31,16.98,16.98c5.01,5.01,11.6,7.51,18.19,7.51s13.18-2.5,18.19-7.51l6.64-6.64,6.64,6.64c5.01,5.01,11.6,7.51,18.19,7.51s13.18-2.5,18.19-7.51l16.98-16.98-10.31-10.31Zm-62.34-6.69c-.38-6.07-5.31-11-11.38-11.38-7.36-.47-13.43,5.6-12.97,12.97.38,6.07,5.31,11,11.38,11.38,7.36.46,13.43-5.61,12.97-12.97Z"/>
      <path class="cls-61" d="m217,873.43c-.38-6.07-5.31-11-11.38-11.38-7.36-.47-13.43,5.6-12.97,12.97.38,6.07,5.31,11,11.38,11.38,7.36.46,13.43-5.61,12.96-12.97Zm12.69,6.69l-16.99,16.99c-2.16,2.16-5.01,3.24-7.88,3.24s-5.72-1.08-7.88-3.24l-6.64-6.64c-2.85-2.85-6.58-4.27-10.31-4.27s-7.46,1.42-10.31,4.27h0l-6.64,6.64c-2.16,2.16-5.02,3.24-7.88,3.24s-5.72-1.08-7.88-3.24l-16.98-16.99-10.31,10.31,16.98,16.98c5.01,5.01,11.6,7.51,18.19,7.51s13.18-2.5,18.19-7.51l6.64-6.64,6.64,6.64c5.01,5.01,11.6,7.51,18.19,7.51s13.18-2.5,18.19-7.51l16.98-16.98-10.31-10.31Zm-62.34-6.69c-.38-6.07-5.31-11-11.38-11.38-7.36-.47-13.43,5.6-12.97,12.97.38,6.07,5.31,11,11.38,11.38,7.36.46,13.43-5.61,12.97-12.97Z"/>
      <path class="cls-1" d="m337,873.43c-.38-6.07-5.31-11-11.38-11.38-7.36-.47-13.43,5.6-12.97,12.97.38,6.07,5.31,11,11.38,11.38,7.36.46,13.43-5.61,12.96-12.97Zm12.69,6.69l-16.99,16.99c-2.16,2.16-5.01,3.24-7.88,3.24s-5.72-1.08-7.88-3.24l-6.64-6.64c-2.85-2.85-6.58-4.27-10.31-4.27s-7.46,1.42-10.31,4.27h0l-6.64,6.64c-2.16,2.16-5.02,3.24-7.88,3.24s-5.72-1.08-7.88-3.24l-16.98-16.99-10.31,10.31,16.98,16.98c5.01,5.01,11.6,7.51,18.19,7.51s13.18-2.5,18.19-7.51l6.64-6.64,6.64,6.64c5.01,5.01,11.6,7.51,18.19,7.51s13.18-2.5,18.19-7.51l16.98-16.98-10.31-10.31Zm-62.34-6.69c-.38-6.07-5.31-11-11.38-11.38-7.36-.47-13.43,5.6-12.97,12.97.38,6.07,5.31,11,11.38,11.38,7.36.46,13.43-5.61,12.97-12.97Z"/>
      <path class="cls-42" d="m457,873.43c-.38-6.07-5.31-11-11.38-11.38-7.36-.47-13.43,5.6-12.97,12.97.38,6.07,5.31,11,11.38,11.38,7.36.46,13.43-5.61,12.96-12.97Zm12.69,6.69l-16.99,16.99c-2.16,2.16-5.01,3.24-7.88,3.24s-5.72-1.08-7.88-3.24l-6.64-6.64c-2.85-2.85-6.58-4.27-10.31-4.27s-7.46,1.42-10.31,4.27h0l-6.64,6.64c-2.16,2.16-5.02,3.24-7.88,3.24s-5.72-1.08-7.88-3.24l-16.98-16.99-10.31,10.31,16.98,16.98c5.01,5.01,11.6,7.51,18.19,7.51s13.18-2.5,18.19-7.51l6.64-6.64,6.64,6.64c5.01,5.01,11.6,7.51,18.19,7.51s13.18-2.5,18.19-7.51l16.98-16.98-10.31-10.31Zm-62.34-6.69c-.38-6.07-5.31-11-11.38-11.38-7.36-.47-13.43,5.6-12.97,12.97.38,6.07,5.31,11,11.38,11.38,7.36.46,13.43-5.61,12.97-12.97Z"/>
      <path class="cls-74" d="m577,873.43c-.38-6.07-5.31-11-11.38-11.38-7.36-.47-13.43,5.6-12.97,12.97.38,6.07,5.31,11,11.38,11.38,7.36.46,13.43-5.61,12.96-12.97Zm12.69,6.69l-16.99,16.99c-2.16,2.16-5.01,3.24-7.88,3.24s-5.72-1.08-7.88-3.24l-6.64-6.64c-2.85-2.85-6.58-4.27-10.31-4.27s-7.46,1.42-10.31,4.27h0l-6.64,6.64c-2.16,2.16-5.02,3.24-7.88,3.24s-5.72-1.08-7.88-3.24l-16.98-16.99-10.31,10.31,16.98,16.98c5.01,5.01,11.6,7.51,18.19,7.51s13.18-2.5,18.19-7.51l6.64-6.64,6.64,6.64c5.01,5.01,11.6,7.51,18.19,7.51s13.18-2.5,18.19-7.51l16.98-16.98-10.31-10.31Zm-62.34-6.69c-.38-6.07-5.31-11-11.38-11.38-7.36-.47-13.43,5.6-12.97,12.97.38,6.07,5.31,11,11.38,11.38,7.36.46,13.43-5.61,12.97-12.97Z"/>
      <path class="cls-18" d="m697,873.43c-.38-6.07-5.31-11-11.38-11.38-7.36-.47-13.43,5.6-12.97,12.97.38,6.07,5.31,11,11.38,11.38,7.36.46,13.43-5.61,12.96-12.97Zm12.69,6.69l-16.99,16.99c-2.16,2.16-5.01,3.24-7.88,3.24s-5.72-1.08-7.88-3.24l-6.64-6.64c-2.85-2.85-6.58-4.27-10.31-4.27s-7.46,1.42-10.31,4.27h0l-6.64,6.64c-2.16,2.16-5.02,3.24-7.88,3.24s-5.72-1.08-7.88-3.24l-16.98-16.99-10.31,10.31,16.98,16.98c5.01,5.01,11.6,7.51,18.19,7.51s13.18-2.5,18.19-7.51l6.64-6.64,6.64,6.64c5.01,5.01,11.6,7.51,18.19,7.51s13.18-2.5,18.19-7.51l16.98-16.98-10.31-10.31Zm-62.34-6.69c-.38-6.07-5.31-11-11.38-11.38-7.36-.47-13.43,5.6-12.97,12.97.38,6.07,5.31,11,11.38,11.38,7.36.46,13.43-5.61,12.97-12.97Z"/>
      <path class="cls-54" d="m817,873.43c-.38-6.07-5.31-11-11.38-11.38-7.36-.47-13.43,5.6-12.97,12.97.38,6.07,5.31,11,11.38,11.38,7.36.46,13.43-5.61,12.96-12.97Zm12.69,6.69l-16.99,16.99c-2.16,2.16-5.01,3.24-7.88,3.24s-5.72-1.08-7.88-3.24l-6.64-6.64c-2.85-2.85-6.58-4.27-10.31-4.27s-7.46,1.42-10.31,4.27h0l-6.64,6.64c-2.16,2.16-5.02,3.24-7.88,3.24s-5.72-1.08-7.88-3.24l-16.98-16.99-10.31,10.31,16.98,16.98c5.01,5.01,11.6,7.51,18.19,7.51s13.18-2.5,18.19-7.51l6.64-6.64,6.64,6.64c5.01,5.01,11.6,7.51,18.19,7.51s13.18-2.5,18.19-7.51l16.98-16.98-10.31-10.31Zm-62.34-6.69c-.38-6.07-5.31-11-11.38-11.38-7.36-.47-13.43,5.6-12.97,12.97.38,6.07,5.31,11,11.38,11.38,7.36.46,13.43-5.61,12.97-12.97Z"/>
      <path class="cls-5" d="m937,873.43c-.38-6.07-5.31-11-11.38-11.38-7.36-.47-13.43,5.6-12.97,12.97.38,6.07,5.31,11,11.38,11.38,7.36.46,13.43-5.61,12.96-12.97Zm12.69,6.69l-16.99,16.99c-2.16,2.16-5.01,3.24-7.88,3.24s-5.72-1.08-7.88-3.24l-6.64-6.64c-2.85-2.85-6.58-4.27-10.31-4.27s-7.46,1.42-10.31,4.27h0l-6.64,6.64c-2.16,2.16-5.02,3.24-7.88,3.24s-5.72-1.08-7.88-3.24l-16.98-16.99-10.31,10.31,16.98,16.98c5.01,5.01,11.6,7.51,18.19,7.51s13.18-2.5,18.19-7.51l6.64-6.64,6.64,6.64c5.01,5.01,11.6,7.51,18.19,7.51s13.18-2.5,18.19-7.51l16.98-16.98-10.31-10.31Zm-62.34-6.69c-.38-6.07-5.31-11-11.38-11.38-7.36-.47-13.43,5.6-12.97,12.97.38,6.07,5.31,11,11.38,11.38,7.36.46,13.43-5.61,12.97-12.97Z"/>
      <path class="cls-10" d="m1057,873.43c-.38-6.07-5.31-11-11.38-11.38-7.36-.47-13.43,5.6-12.97,12.97.38,6.07,5.31,11,11.38,11.38,7.36.46,13.43-5.61,12.96-12.97Zm12.69,6.69l-16.99,16.99c-2.16,2.16-5.01,3.24-7.88,3.24s-5.72-1.08-7.88-3.24l-6.64-6.64c-2.85-2.85-6.58-4.27-10.31-4.27s-7.46,1.42-10.31,4.27h0l-6.64,6.64c-2.16,2.16-5.02,3.24-7.88,3.24s-5.72-1.08-7.88-3.24l-16.98-16.99-10.31,10.31,16.98,16.98c5.01,5.01,11.6,7.51,18.19,7.51s13.18-2.5,18.19-7.51l6.64-6.64,6.64,6.64c5.01,5.01,11.6,7.51,18.19,7.51s13.18-2.5,18.19-7.51l16.98-16.98-10.31-10.31Zm-62.34-6.69c-.38-6.07-5.31-11-11.38-11.38-7.36-.47-13.43,5.6-12.97,12.97.38,6.07,5.31,11,11.38,11.38,7.36.46,13.43-5.61,12.97-12.97Z"/>
    </g>
  </g>
  <text class="cls-20" transform="translate(390.28 218.35)"><tspan x="0" y="0">PATTERN</tspan></text>
</svg>